<?xml version="1.0" encoding="UTF-8" standalone="no"?>
<!DOCTYPE svg PUBLIC "-//W3C//DTD SVG 1.1//EN"
 "http://www.w3.org/Graphics/SVG/1.1/DTD/svg11.dtd">
<!-- Generated by graphviz version 2.43.0 (0)
 -->
<!-- Title: _127 Pages: 1 -->
<svg width="1765pt" height="1604pt"
 viewBox="0.00 0.00 1765.09 1604.00" xmlns="http://www.w3.org/2000/svg" xmlns:xlink="http://www.w3.org/1999/xlink">
<g id="graph0" class="graph" transform="scale(1 1) rotate(0) translate(4 1600)">
<title>_127</title>
<polygon fill="white" stroke="transparent" points="-4,4 -4,-1600 1761.09,-1600 1761.09,4 -4,4"/>
<g id="clust1" class="cluster">
<title>cluster127diagram</title>
<polygon fill="none" stroke="black" points="8,-8 8,-1588 1749.09,-1588 1749.09,-8 8,-8"/>
<text text-anchor="start" x="844.55" y="-1569.3" font-family="Times,serif" font-weight="bold" font-size="14.00">Diagram</text>
</g>
<g id="clust2" class="cluster">
<title>clusters127in</title>
<polygon fill="lightgrey" stroke="lightgrey" points="16,-439 16,-514 175,-514 175,-439 16,-439"/>
<text text-anchor="middle" x="95.5" y="-498.8" font-family="Times,serif" font-size="14.00">input ports</text>
</g>
<g id="clust3" class="cluster">
<title>clusters127out</title>
<polygon fill="lightgrey" stroke="lightgrey" points="878,-780 878,-1549 1280,-1549 1280,-780 878,-780"/>
<text text-anchor="middle" x="1079" y="-1533.8" font-family="Times,serif" font-size="14.00">output ports</text>
</g>
<g id="clust4" class="cluster">
<title>cluster127subsystems</title>
<polygon fill="none" stroke="white" points="195,-16 195,-772 1741.09,-772 1741.09,-16 195,-16"/>
</g>
<!-- s127in -->
<g id="node1" class="node">
<title>s127in</title>
<polygon fill="none" stroke="blue" points="35.5,-454 35.5,-475 156.5,-475 156.5,-454 35.5,-454"/>
<text text-anchor="start" x="38.5" y="-460.8" font-family="Times,serif" font-size="14.00">drone_actuation</text>
</g>
<!-- s2 -->
<g id="node3" class="node">
<title>s2</title>
<polygon fill="none" stroke="black" points="211.5,-726 211.5,-760 842.5,-760 842.5,-726 211.5,-726"/>
<text text-anchor="start" x="465.5" y="-746.8" font-family="Times,serif" font-weight="bold" font-size="14.00">MultibodyPlant</text>
<text text-anchor="start" x="483" y="-732.8" font-family="Times,serif" font-size="14.00">name=plant</text>
<polygon fill="none" stroke="black" points="211.5,-705 211.5,-726 478.5,-726 478.5,-705 211.5,-705"/>
<text text-anchor="start" x="286.5" y="-711.8" font-family="Times,serif" font-size="14.00">geometry_query</text>
<polygon fill="none" stroke="black" points="478.5,-705 478.5,-726 842.5,-726 842.5,-705 478.5,-705"/>
<text text-anchor="start" x="606" y="-711.8" font-family="Times,serif" font-size="14.00">geometry_pose</text>
<polygon fill="none" stroke="black" points="211.5,-684 211.5,-705 478.5,-705 478.5,-684 211.5,-684"/>
<text text-anchor="start" x="311.5" y="-690.8" font-family="Times,serif" font-size="14.00">actuation</text>
<polygon fill="none" stroke="black" points="478.5,-684 478.5,-705 842.5,-705 842.5,-684 478.5,-684"/>
<text text-anchor="start" x="548.5" y="-690.8" font-family="Times,serif" font-size="14.00">deformable_body_configuration</text>
<polygon fill="none" stroke="black" points="211.5,-663 211.5,-684 478.5,-684 478.5,-663 211.5,-663"/>
<text text-anchor="start" x="252" y="-669.8" font-family="Times,serif" font-size="14.00">applied_generalized_force</text>
<polygon fill="none" stroke="black" points="478.5,-663 478.5,-684 842.5,-684 842.5,-663 478.5,-663"/>
<text text-anchor="start" x="642" y="-669.8" font-family="Times,serif" font-size="14.00">state</text>
<polygon fill="none" stroke="black" points="211.5,-642 211.5,-663 478.5,-663 478.5,-642 211.5,-642"/>
<text text-anchor="start" x="269.5" y="-648.8" font-family="Times,serif" font-size="14.00">applied_spatial_force</text>
<polygon fill="none" stroke="black" points="478.5,-642 478.5,-663 842.5,-663 842.5,-642 478.5,-642"/>
<text text-anchor="start" x="619.5" y="-648.8" font-family="Times,serif" font-size="14.00">body_poses</text>
<polygon fill="none" stroke="black" points="211.5,-621 211.5,-642 478.5,-642 478.5,-621 211.5,-621"/>
<text text-anchor="start" x="234.5" y="-627.8" font-family="Times,serif" font-size="14.00" fill="grey">WorldModelInstance_actuation</text>
<polygon fill="none" stroke="black" points="478.5,-621 478.5,-642 842.5,-642 842.5,-621 478.5,-621"/>
<text text-anchor="start" x="578.5" y="-627.8" font-family="Times,serif" font-size="14.00">body_spatial_velocities</text>
<polygon fill="none" stroke="black" points="211.5,-600 211.5,-621 478.5,-621 478.5,-600 211.5,-600"/>
<text text-anchor="start" x="220" y="-606.8" font-family="Times,serif" font-size="14.00" fill="grey">WorldModelInstance_desired_state</text>
<polygon fill="none" stroke="black" points="478.5,-600 478.5,-621 842.5,-621 842.5,-600 478.5,-600"/>
<text text-anchor="start" x="565" y="-606.8" font-family="Times,serif" font-size="14.00">body_spatial_accelerations</text>
<polygon fill="none" stroke="black" points="211.5,-579 211.5,-600 478.5,-600 478.5,-579 211.5,-579"/>
<text text-anchor="start" x="229" y="-585.8" font-family="Times,serif" font-size="14.00" fill="grey">DefaultModelInstance_actuation</text>
<polygon fill="none" stroke="black" points="478.5,-579 478.5,-600 842.5,-600 842.5,-579 478.5,-579"/>
<text text-anchor="start" x="571.5" y="-585.8" font-family="Times,serif" font-size="14.00">generalized_acceleration</text>
<polygon fill="none" stroke="black" points="211.5,-558 211.5,-579 478.5,-579 478.5,-558 211.5,-558"/>
<text text-anchor="start" x="214.5" y="-564.8" font-family="Times,serif" font-size="14.00" fill="grey">DefaultModelInstance_desired_state</text>
<polygon fill="none" stroke="black" points="478.5,-558 478.5,-579 842.5,-579 842.5,-558 478.5,-558"/>
<text text-anchor="start" x="612" y="-564.8" font-family="Times,serif" font-size="14.00">net_actuation</text>
<polygon fill="none" stroke="black" points="211.5,-537 211.5,-558 478.5,-558 478.5,-537 211.5,-537"/>
<text text-anchor="start" x="275" y="-543.8" font-family="Times,serif" font-size="14.00" fill="grey">table_top_actuation</text>
<polygon fill="none" stroke="black" points="478.5,-537 478.5,-558 842.5,-558 842.5,-537 478.5,-537"/>
<text text-anchor="start" x="606" y="-543.8" font-family="Times,serif" font-size="14.00">reaction_forces</text>
<polygon fill="none" stroke="black" points="211.5,-516 211.5,-537 478.5,-537 478.5,-516 211.5,-516"/>
<text text-anchor="start" x="260.5" y="-522.8" font-family="Times,serif" font-size="14.00" fill="grey">table_top_desired_state</text>
<polygon fill="none" stroke="black" points="478.5,-516 478.5,-537 842.5,-537 842.5,-516 478.5,-516"/>
<text text-anchor="start" x="606" y="-522.8" font-family="Times,serif" font-size="14.00">contact_results</text>
<polygon fill="none" stroke="black" points="211.5,-495 211.5,-516 478.5,-516 478.5,-495 211.5,-495"/>
<text text-anchor="start" x="271.5" y="-501.8" font-family="Times,serif" font-size="14.00" fill="grey">sugar_box_actuation</text>
<polygon fill="none" stroke="black" points="478.5,-495 478.5,-516 842.5,-516 842.5,-495 478.5,-495"/>
<text text-anchor="start" x="565.5" y="-501.8" font-family="Times,serif" font-size="14.00" fill="grey">WorldModelInstance_state</text>
<polygon fill="none" stroke="black" points="211.5,-474 211.5,-495 478.5,-495 478.5,-474 211.5,-474"/>
<text text-anchor="start" x="257" y="-480.8" font-family="Times,serif" font-size="14.00" fill="grey">sugar_box_desired_state</text>
<polygon fill="none" stroke="black" points="478.5,-474 478.5,-495 842.5,-495 842.5,-474 478.5,-474"/>
<text text-anchor="start" x="495" y="-480.8" font-family="Times,serif" font-size="14.00" fill="grey">WorldModelInstance_generalized_acceleration</text>
<polygon fill="none" stroke="black" points="211.5,-453 211.5,-474 478.5,-474 478.5,-453 211.5,-453"/>
<text text-anchor="start" x="287.5" y="-459.8" font-family="Times,serif" font-size="14.00">drone_actuation</text>
<polygon fill="none" stroke="black" points="478.5,-453 478.5,-474 842.5,-474 842.5,-453 478.5,-453"/>
<text text-anchor="start" x="487" y="-459.8" font-family="Times,serif" font-size="14.00" fill="grey">WorldModelInstance_generalized_contact_forces</text>
<polygon fill="none" stroke="black" points="211.5,-432 211.5,-453 478.5,-453 478.5,-432 211.5,-432"/>
<text text-anchor="start" x="272.5" y="-438.8" font-family="Times,serif" font-size="14.00" fill="grey">drone_desired_state</text>
<polygon fill="none" stroke="black" points="478.5,-432 478.5,-453 842.5,-453 842.5,-432 478.5,-432"/>
<text text-anchor="start" x="535" y="-438.8" font-family="Times,serif" font-size="14.00" fill="grey">WorldModelInstance_net_actuation</text>
<polyline fill="none" stroke="grey" points="211.5,-432 211.5,-96 478.5,-96 "/>
<polygon fill="none" stroke="black" points="478.5,-411 478.5,-432 842.5,-432 842.5,-411 478.5,-411"/>
<text text-anchor="start" x="560" y="-417.8" font-family="Times,serif" font-size="14.00" fill="grey">DefaultModelInstance_state</text>
<polygon fill="none" stroke="black" points="478.5,-390 478.5,-411 842.5,-411 842.5,-390 478.5,-390"/>
<text text-anchor="start" x="489.5" y="-396.8" font-family="Times,serif" font-size="14.00" fill="grey">DefaultModelInstance_generalized_acceleration</text>
<polygon fill="none" stroke="black" points="478.5,-369 478.5,-390 842.5,-390 842.5,-369 478.5,-369"/>
<text text-anchor="start" x="481.5" y="-375.8" font-family="Times,serif" font-size="14.00" fill="grey">DefaultModelInstance_generalized_contact_forces</text>
<polygon fill="none" stroke="black" points="478.5,-348 478.5,-369 842.5,-369 842.5,-348 478.5,-348"/>
<text text-anchor="start" x="529.5" y="-354.8" font-family="Times,serif" font-size="14.00" fill="grey">DefaultModelInstance_net_actuation</text>
<polygon fill="none" stroke="black" points="478.5,-327 478.5,-348 842.5,-348 842.5,-327 478.5,-327"/>
<text text-anchor="start" x="606" y="-333.8" font-family="Times,serif" font-size="14.00" fill="grey">table_top_state</text>
<polygon fill="none" stroke="black" points="478.5,-306 478.5,-327 842.5,-327 842.5,-306 478.5,-306"/>
<text text-anchor="start" x="535.5" y="-312.8" font-family="Times,serif" font-size="14.00" fill="grey">table_top_generalized_acceleration</text>
<polygon fill="none" stroke="black" points="478.5,-285 478.5,-306 842.5,-306 842.5,-285 478.5,-285"/>
<text text-anchor="start" x="527.5" y="-291.8" font-family="Times,serif" font-size="14.00" fill="grey">table_top_generalized_contact_forces</text>
<polygon fill="none" stroke="black" points="478.5,-264 478.5,-285 842.5,-285 842.5,-264 478.5,-264"/>
<text text-anchor="start" x="575.5" y="-270.8" font-family="Times,serif" font-size="14.00" fill="grey">table_top_net_actuation</text>
<polygon fill="none" stroke="black" points="478.5,-243 478.5,-264 842.5,-264 842.5,-243 478.5,-243"/>
<text text-anchor="start" x="602.5" y="-249.8" font-family="Times,serif" font-size="14.00">sugar_box_state</text>
<polygon fill="none" stroke="black" points="478.5,-222 478.5,-243 842.5,-243 842.5,-222 478.5,-222"/>
<text text-anchor="start" x="532" y="-228.8" font-family="Times,serif" font-size="14.00">sugar_box_generalized_acceleration</text>
<polygon fill="none" stroke="black" points="478.5,-201 478.5,-222 842.5,-222 842.5,-201 478.5,-201"/>
<text text-anchor="start" x="524" y="-207.8" font-family="Times,serif" font-size="14.00">sugar_box_generalized_contact_forces</text>
<polygon fill="none" stroke="black" points="478.5,-180 478.5,-201 842.5,-201 842.5,-180 478.5,-180"/>
<text text-anchor="start" x="572" y="-186.8" font-family="Times,serif" font-size="14.00" fill="grey">sugar_box_net_actuation</text>
<polygon fill="none" stroke="black" points="478.5,-159 478.5,-180 842.5,-180 842.5,-159 478.5,-159"/>
<text text-anchor="start" x="618" y="-165.8" font-family="Times,serif" font-size="14.00">drone_state</text>
<polygon fill="none" stroke="black" points="478.5,-138 478.5,-159 842.5,-159 842.5,-138 478.5,-138"/>
<text text-anchor="start" x="547.5" y="-144.8" font-family="Times,serif" font-size="14.00">drone_generalized_acceleration</text>
<polygon fill="none" stroke="black" points="478.5,-117 478.5,-138 842.5,-138 842.5,-117 478.5,-117"/>
<text text-anchor="start" x="540" y="-123.8" font-family="Times,serif" font-size="14.00">drone_generalized_contact_forces</text>
<polygon fill="none" stroke="black" points="478.5,-96 478.5,-117 842.5,-117 842.5,-96 478.5,-96"/>
<text text-anchor="start" x="588" y="-102.8" font-family="Times,serif" font-size="14.00">drone_net_actuation</text>
</g>
<!-- s127in&#45;&gt;s2 -->
<g id="edge6" class="edge">
<title>s127in:e&#45;&gt;s2:w</title>
<path fill="none" stroke="blue" d="M157.5,-464C177.19,-464 184.54,-464 200.18,-464"/>
<polygon fill="blue" stroke="blue" points="200.5,-467.5 210.5,-464 200.5,-460.5 200.5,-467.5"/>
</g>
<!-- s127out -->
<g id="node2" class="node">
<title>s127out</title>
<polygon fill="none" stroke="green" points="897,-1490 897,-1511 1261,-1511 1261,-1490 897,-1490"/>
<text text-anchor="start" x="1024.5" y="-1496.8" font-family="Times,serif" font-size="14.00">geometry_pose</text>
<polygon fill="none" stroke="green" points="897,-1466 897,-1487 1261,-1487 1261,-1466 897,-1466"/>
<text text-anchor="start" x="967" y="-1472.8" font-family="Times,serif" font-size="14.00">deformable_body_configuration</text>
<polygon fill="none" stroke="green" points="897,-1442 897,-1463 1261,-1463 1261,-1442 897,-1442"/>
<text text-anchor="start" x="1060.5" y="-1448.8" font-family="Times,serif" font-size="14.00">state</text>
<polygon fill="none" stroke="green" points="897,-1418 897,-1439 1261,-1439 1261,-1418 897,-1418"/>
<text text-anchor="start" x="1038" y="-1424.8" font-family="Times,serif" font-size="14.00">body_poses</text>
<polygon fill="none" stroke="green" points="897,-1394 897,-1415 1261,-1415 1261,-1394 897,-1394"/>
<text text-anchor="start" x="997" y="-1400.8" font-family="Times,serif" font-size="14.00">body_spatial_velocities</text>
<polygon fill="none" stroke="green" points="897,-1370 897,-1391 1261,-1391 1261,-1370 897,-1370"/>
<text text-anchor="start" x="983.5" y="-1376.8" font-family="Times,serif" font-size="14.00">body_spatial_accelerations</text>
<polygon fill="none" stroke="green" points="897,-1346 897,-1367 1261,-1367 1261,-1346 897,-1346"/>
<text text-anchor="start" x="990" y="-1352.8" font-family="Times,serif" font-size="14.00">generalized_acceleration</text>
<polygon fill="none" stroke="green" points="897,-1322 897,-1343 1261,-1343 1261,-1322 897,-1322"/>
<text text-anchor="start" x="1030.5" y="-1328.8" font-family="Times,serif" font-size="14.00">net_actuation</text>
<polygon fill="none" stroke="green" points="897,-1298 897,-1319 1261,-1319 1261,-1298 897,-1298"/>
<text text-anchor="start" x="1024.5" y="-1304.8" font-family="Times,serif" font-size="14.00">reaction_forces</text>
<polygon fill="none" stroke="green" points="897,-1274 897,-1295 1261,-1295 1261,-1274 897,-1274"/>
<text text-anchor="start" x="1024.5" y="-1280.8" font-family="Times,serif" font-size="14.00">contact_results</text>
<polygon fill="none" stroke="green" points="897,-1250 897,-1271 1261,-1271 1261,-1250 897,-1250"/>
<text text-anchor="start" x="984" y="-1256.8" font-family="Times,serif" font-size="14.00" fill="grey">WorldModelInstance_state</text>
<polygon fill="none" stroke="green" points="897,-1226 897,-1247 1261,-1247 1261,-1226 897,-1226"/>
<text text-anchor="start" x="913.5" y="-1232.8" font-family="Times,serif" font-size="14.00" fill="grey">WorldModelInstance_generalized_acceleration</text>
<polygon fill="none" stroke="green" points="897,-1202 897,-1223 1261,-1223 1261,-1202 897,-1202"/>
<text text-anchor="start" x="905.5" y="-1208.8" font-family="Times,serif" font-size="14.00" fill="grey">WorldModelInstance_generalized_contact_forces</text>
<polygon fill="none" stroke="green" points="897,-1178 897,-1199 1261,-1199 1261,-1178 897,-1178"/>
<text text-anchor="start" x="953.5" y="-1184.8" font-family="Times,serif" font-size="14.00" fill="grey">WorldModelInstance_net_actuation</text>
<polygon fill="none" stroke="green" points="897,-1154 897,-1175 1261,-1175 1261,-1154 897,-1154"/>
<text text-anchor="start" x="978.5" y="-1160.8" font-family="Times,serif" font-size="14.00" fill="grey">DefaultModelInstance_state</text>
<polygon fill="none" stroke="green" points="897,-1130 897,-1151 1261,-1151 1261,-1130 897,-1130"/>
<text text-anchor="start" x="908" y="-1136.8" font-family="Times,serif" font-size="14.00" fill="grey">DefaultModelInstance_generalized_acceleration</text>
<polygon fill="none" stroke="green" points="897,-1106 897,-1127 1261,-1127 1261,-1106 897,-1106"/>
<text text-anchor="start" x="900" y="-1112.8" font-family="Times,serif" font-size="14.00" fill="grey">DefaultModelInstance_generalized_contact_forces</text>
<polygon fill="none" stroke="green" points="897,-1082 897,-1103 1261,-1103 1261,-1082 897,-1082"/>
<text text-anchor="start" x="948" y="-1088.8" font-family="Times,serif" font-size="14.00" fill="grey">DefaultModelInstance_net_actuation</text>
<polygon fill="none" stroke="green" points="897,-1058 897,-1079 1261,-1079 1261,-1058 897,-1058"/>
<text text-anchor="start" x="1024.5" y="-1064.8" font-family="Times,serif" font-size="14.00" fill="grey">table_top_state</text>
<polygon fill="none" stroke="green" points="897,-1034 897,-1055 1261,-1055 1261,-1034 897,-1034"/>
<text text-anchor="start" x="954" y="-1040.8" font-family="Times,serif" font-size="14.00" fill="grey">table_top_generalized_acceleration</text>
<polygon fill="none" stroke="green" points="897,-1010 897,-1031 1261,-1031 1261,-1010 897,-1010"/>
<text text-anchor="start" x="946" y="-1016.8" font-family="Times,serif" font-size="14.00" fill="grey">table_top_generalized_contact_forces</text>
<polygon fill="none" stroke="green" points="897,-986 897,-1007 1261,-1007 1261,-986 897,-986"/>
<text text-anchor="start" x="994" y="-992.8" font-family="Times,serif" font-size="14.00" fill="grey">table_top_net_actuation</text>
<polygon fill="none" stroke="green" points="897,-962 897,-983 1261,-983 1261,-962 897,-962"/>
<text text-anchor="start" x="1021" y="-968.8" font-family="Times,serif" font-size="14.00">sugar_box_state</text>
<polygon fill="none" stroke="green" points="897,-938 897,-959 1261,-959 1261,-938 897,-938"/>
<text text-anchor="start" x="950.5" y="-944.8" font-family="Times,serif" font-size="14.00">sugar_box_generalized_acceleration</text>
<polygon fill="none" stroke="green" points="897,-914 897,-935 1261,-935 1261,-914 897,-914"/>
<text text-anchor="start" x="942.5" y="-920.8" font-family="Times,serif" font-size="14.00">sugar_box_generalized_contact_forces</text>
<polygon fill="none" stroke="green" points="897,-890 897,-911 1261,-911 1261,-890 897,-890"/>
<text text-anchor="start" x="990.5" y="-896.8" font-family="Times,serif" font-size="14.00" fill="grey">sugar_box_net_actuation</text>
<polygon fill="none" stroke="green" points="897,-866 897,-887 1261,-887 1261,-866 897,-866"/>
<text text-anchor="start" x="1036.5" y="-872.8" font-family="Times,serif" font-size="14.00">drone_state</text>
<polygon fill="none" stroke="green" points="897,-842 897,-863 1261,-863 1261,-842 897,-842"/>
<text text-anchor="start" x="966" y="-848.8" font-family="Times,serif" font-size="14.00">drone_generalized_acceleration</text>
<polygon fill="none" stroke="green" points="897,-818 897,-839 1261,-839 1261,-818 897,-818"/>
<text text-anchor="start" x="958.5" y="-824.8" font-family="Times,serif" font-size="14.00">drone_generalized_contact_forces</text>
<polygon fill="none" stroke="green" points="897,-794 897,-815 1261,-815 1261,-794 897,-794"/>
<text text-anchor="start" x="1006.5" y="-800.8" font-family="Times,serif" font-size="14.00">drone_net_actuation</text>
</g>
<!-- s2&#45;&gt;s127out -->
<g id="edge7" class="edge">
<title>s2:e&#45;&gt;s127out:w</title>
<path fill="none" stroke="green" d="M843.5,-716C927.33,-716 818.27,-1437.93 886.27,-1497.15"/>
<polygon fill="green" stroke="green" points="885.41,-1500.57 896,-1501 887.99,-1494.06 885.41,-1500.57"/>
</g>
<!-- s2&#45;&gt;s127out -->
<g id="edge8" class="edge">
<title>s2:e&#45;&gt;s127out:w</title>
<path fill="none" stroke="green" d="M843.5,-695C927.01,-695 818.54,-1414.17 886.31,-1473.16"/>
<polygon fill="green" stroke="green" points="885.41,-1476.57 896,-1477 887.99,-1470.06 885.41,-1476.57"/>
</g>
<!-- s2&#45;&gt;s127out -->
<g id="edge9" class="edge">
<title>s2:e&#45;&gt;s127out:w</title>
<path fill="none" stroke="green" d="M843.5,-674C926.69,-674 818.82,-1390.41 886.35,-1449.18"/>
<polygon fill="green" stroke="green" points="885.41,-1452.57 896,-1453 887.99,-1446.06 885.41,-1452.57"/>
</g>
<!-- s2&#45;&gt;s127out -->
<g id="edge10" class="edge">
<title>s2:e&#45;&gt;s127out:w</title>
<path fill="none" stroke="green" d="M843.5,-653C926.37,-653 819.1,-1366.65 886.38,-1425.19"/>
<polygon fill="green" stroke="green" points="885.41,-1428.57 896,-1429 887.99,-1422.06 885.41,-1428.57"/>
</g>
<!-- s2&#45;&gt;s127out -->
<g id="edge11" class="edge">
<title>s2:e&#45;&gt;s127out:w</title>
<path fill="none" stroke="green" d="M843.5,-632C926.06,-632 819.38,-1342.89 886.42,-1401.21"/>
<polygon fill="green" stroke="green" points="885.41,-1404.57 896,-1405 887.99,-1398.06 885.41,-1404.57"/>
</g>
<!-- s2&#45;&gt;s127out -->
<g id="edge12" class="edge">
<title>s2:e&#45;&gt;s127out:w</title>
<path fill="none" stroke="green" d="M843.5,-611C925.74,-611 819.66,-1319.13 886.45,-1377.22"/>
<polygon fill="green" stroke="green" points="885.41,-1380.57 896,-1381 887.99,-1374.06 885.41,-1380.57"/>
</g>
<!-- s2&#45;&gt;s127out -->
<g id="edge13" class="edge">
<title>s2:e&#45;&gt;s127out:w</title>
<path fill="none" stroke="green" d="M843.5,-590C925.42,-590 819.94,-1295.37 886.49,-1353.23"/>
<polygon fill="green" stroke="green" points="885.41,-1356.57 896,-1357 887.99,-1350.06 885.41,-1356.57"/>
</g>
<!-- s2&#45;&gt;s127out -->
<g id="edge14" class="edge">
<title>s2:e&#45;&gt;s127out:w</title>
<path fill="none" stroke="green" d="M843.5,-569C925.1,-569 820.22,-1271.61 886.53,-1329.25"/>
<polygon fill="green" stroke="green" points="885.41,-1332.57 896,-1333 887.99,-1326.07 885.41,-1332.57"/>
</g>
<!-- s2&#45;&gt;s127out -->
<g id="edge15" class="edge">
<title>s2:e&#45;&gt;s127out:w</title>
<path fill="none" stroke="green" d="M843.5,-548C924.78,-548 820.5,-1247.85 886.56,-1305.26"/>
<polygon fill="green" stroke="green" points="885.41,-1308.57 896,-1309 887.99,-1302.07 885.41,-1308.57"/>
</g>
<!-- s2&#45;&gt;s127out -->
<g id="edge16" class="edge">
<title>s2:e&#45;&gt;s127out:w</title>
<path fill="none" stroke="green" d="M843.5,-527C924.46,-527 820.78,-1224.1 886.6,-1281.28"/>
<polygon fill="green" stroke="green" points="885.41,-1284.57 896,-1285 887.99,-1278.07 885.41,-1284.57"/>
</g>
<!-- s2&#45;&gt;s127out -->
<g id="edge17" class="edge">
<title>s2:e&#45;&gt;s127out:w</title>
<path fill="none" stroke="green" d="M843.5,-506C924.14,-506 821.06,-1200.34 886.63,-1257.29"/>
<polygon fill="green" stroke="green" points="885.41,-1260.58 896,-1261 887.99,-1254.07 885.41,-1260.58"/>
</g>
<!-- s2&#45;&gt;s127out -->
<g id="edge18" class="edge">
<title>s2:e&#45;&gt;s127out:w</title>
<path fill="none" stroke="green" d="M843.5,-485C923.82,-485 821.34,-1176.58 886.67,-1233.31"/>
<polygon fill="green" stroke="green" points="885.41,-1236.58 896,-1237 887.99,-1230.07 885.41,-1236.58"/>
</g>
<!-- s2&#45;&gt;s127out -->
<g id="edge19" class="edge">
<title>s2:e&#45;&gt;s127out:w</title>
<path fill="none" stroke="green" d="M843.5,-464C923.34,-464 822.04,-1150.02 886.31,-1208.97"/>
<polygon fill="green" stroke="green" points="885.42,-1212.39 896,-1213 888.11,-1205.93 885.42,-1212.39"/>
</g>
<!-- s2&#45;&gt;s127out -->
<g id="edge20" class="edge">
<title>s2:e&#45;&gt;s127out:w</title>
<path fill="none" stroke="green" d="M843.5,-443C923.02,-443 822.31,-1126.27 886.35,-1184.99"/>
<polygon fill="green" stroke="green" points="885.42,-1188.39 896,-1189 888.11,-1181.93 885.42,-1188.39"/>
</g>
<!-- s2&#45;&gt;s127out -->
<g id="edge21" class="edge">
<title>s2:e&#45;&gt;s127out:w</title>
<path fill="none" stroke="green" d="M843.5,-421C922.81,-421 822.5,-1102.44 886.37,-1161"/>
<polygon fill="green" stroke="green" points="885.42,-1164.39 896,-1165 888.11,-1157.93 885.42,-1164.39"/>
</g>
<!-- s2&#45;&gt;s127out -->
<g id="edge22" class="edge">
<title>s2:e&#45;&gt;s127out:w</title>
<path fill="none" stroke="green" d="M843.5,-400C922.39,-400 822.87,-1077.77 886.42,-1136.02"/>
<polygon fill="green" stroke="green" points="885.42,-1139.39 896,-1140 888.11,-1132.93 885.42,-1139.39"/>
</g>
<!-- s2&#45;&gt;s127out -->
<g id="edge23" class="edge">
<title>s2:e&#45;&gt;s127out:w</title>
<path fill="none" stroke="green" d="M843.5,-379C922.07,-379 823.14,-1054.02 886.46,-1112.03"/>
<polygon fill="green" stroke="green" points="885.42,-1115.39 896,-1116 888.11,-1108.93 885.42,-1115.39"/>
</g>
<!-- s2&#45;&gt;s127out -->
<g id="edge24" class="edge">
<title>s2:e&#45;&gt;s127out:w</title>
<path fill="none" stroke="green" d="M843.5,-358C921.75,-358 823.42,-1030.28 886.5,-1088.05"/>
<polygon fill="green" stroke="green" points="885.42,-1091.39 896,-1092 888.11,-1084.93 885.42,-1091.39"/>
</g>
<!-- s2&#45;&gt;s127out -->
<g id="edge25" class="edge">
<title>s2:e&#45;&gt;s127out:w</title>
<path fill="none" stroke="green" d="M843.5,-337C921.43,-337 823.7,-1006.53 886.53,-1064.07"/>
<polygon fill="green" stroke="green" points="885.42,-1067.39 896,-1068 888.11,-1060.93 885.42,-1067.39"/>
</g>
<!-- s2&#45;&gt;s127out -->
<g id="edge26" class="edge">
<title>s2:e&#45;&gt;s127out:w</title>
<path fill="none" stroke="green" d="M843.5,-316C921.11,-316 823.98,-982.78 886.57,-1040.08"/>
<polygon fill="green" stroke="green" points="885.42,-1043.4 896,-1044 888.11,-1036.93 885.42,-1043.4"/>
</g>
<!-- s2&#45;&gt;s127out -->
<g id="edge27" class="edge">
<title>s2:e&#45;&gt;s127out:w</title>
<path fill="none" stroke="green" d="M843.5,-295C920.8,-295 824.25,-959.03 886.61,-1016.1"/>
<polygon fill="green" stroke="green" points="885.42,-1019.4 896,-1020 888.11,-1012.93 885.42,-1019.4"/>
</g>
<!-- s2&#45;&gt;s127out -->
<g id="edge28" class="edge">
<title>s2:e&#45;&gt;s127out:w</title>
<path fill="none" stroke="green" d="M843.5,-274C920.48,-274 824.53,-935.29 886.65,-992.12"/>
<polygon fill="green" stroke="green" points="885.42,-995.4 896,-996 888.11,-988.93 885.42,-995.4"/>
</g>
<!-- s2&#45;&gt;s127out -->
<g id="edge29" class="edge">
<title>s2:e&#45;&gt;s127out:w</title>
<path fill="none" stroke="green" d="M843.5,-253C920.16,-253 824.81,-911.54 886.68,-968.13"/>
<polygon fill="green" stroke="green" points="885.42,-971.4 896,-972 888.11,-964.93 885.42,-971.4"/>
</g>
<!-- s2&#45;&gt;s127out -->
<g id="edge30" class="edge">
<title>s2:e&#45;&gt;s127out:w</title>
<path fill="none" stroke="green" d="M843.5,-232C919.84,-232 825.08,-887.79 886.72,-944.15"/>
<polygon fill="green" stroke="green" points="885.42,-947.4 896,-948 888.11,-940.93 885.42,-947.4"/>
</g>
<!-- s2&#45;&gt;s127out -->
<g id="edge31" class="edge">
<title>s2:e&#45;&gt;s127out:w</title>
<path fill="none" stroke="green" d="M843.5,-211C919.52,-211 825.36,-864.04 886.76,-920.16"/>
<polygon fill="green" stroke="green" points="885.42,-923.4 896,-924 888.11,-916.93 885.42,-923.4"/>
</g>
<!-- s2&#45;&gt;s127out -->
<g id="edge32" class="edge">
<title>s2:e&#45;&gt;s127out:w</title>
<path fill="none" stroke="green" d="M843.5,-190C919.05,-190 826.02,-837.64 886.42,-895.83"/>
<polygon fill="green" stroke="green" points="885.43,-899.22 896,-900 888.23,-892.8 885.43,-899.22"/>
</g>
<!-- s2&#45;&gt;s127out -->
<g id="edge33" class="edge">
<title>s2:e&#45;&gt;s127out:w</title>
<path fill="none" stroke="green" d="M843.5,-169C918.73,-169 826.29,-813.91 886.46,-871.85"/>
<polygon fill="green" stroke="green" points="885.43,-875.22 896,-876 888.23,-868.8 885.43,-875.22"/>
</g>
<!-- s2&#45;&gt;s127out -->
<g id="edge34" class="edge">
<title>s2:e&#45;&gt;s127out:w</title>
<path fill="none" stroke="green" d="M843.5,-148C918.42,-148 826.57,-790.17 886.5,-847.87"/>
<polygon fill="green" stroke="green" points="885.43,-851.22 896,-852 888.23,-844.8 885.43,-851.22"/>
</g>
<!-- s2&#45;&gt;s127out -->
<g id="edge35" class="edge">
<title>s2:e&#45;&gt;s127out:w</title>
<path fill="none" stroke="green" d="M843.5,-127C918.1,-127 826.84,-766.43 886.54,-823.88"/>
<polygon fill="green" stroke="green" points="885.43,-827.22 896,-828 888.23,-820.8 885.43,-827.22"/>
</g>
<!-- s2&#45;&gt;s127out -->
<g id="edge36" class="edge">
<title>s2:e&#45;&gt;s127out:w</title>
<path fill="none" stroke="green" d="M843.5,-106C917.78,-106 827.12,-742.7 886.58,-799.9"/>
<polygon fill="green" stroke="green" points="885.43,-803.22 896,-804 888.23,-796.8 885.43,-803.22"/>
</g>
<!-- s3 -->
<g id="node4" class="node">
<title>s3</title>
<polygon fill="none" stroke="black" points="983,-726 983,-760 1176,-760 1176,-726 983,-726"/>
<text text-anchor="start" x="1031.5" y="-746.8" font-family="Times,serif" font-weight="bold" font-size="14.00">SceneGraph</text>
<text text-anchor="start" x="1009" y="-732.8" font-family="Times,serif" font-size="14.00">name=scene_graph</text>
<polygon fill="none" stroke="black" points="983,-705 983,-726 1128,-726 1128,-705 983,-705"/>
<text text-anchor="start" x="1017" y="-711.8" font-family="Times,serif" font-size="14.00">plant_pose</text>
<polygon fill="none" stroke="black" points="1128,-684 1128,-726 1176,-726 1176,-684 1128,-684"/>
<text text-anchor="start" x="1131" y="-701.3" font-family="Times,serif" font-size="14.00">query</text>
<polygon fill="none" stroke="black" points="983,-684 983,-705 1128,-705 1128,-684 983,-684"/>
<text text-anchor="start" x="986" y="-690.8" font-family="Times,serif" font-size="14.00">plant_configuration</text>
</g>
<!-- s2&#45;&gt;s3 -->
<g id="edge2" class="edge">
<title>s2:e&#45;&gt;s3:w</title>
<path fill="none" stroke="black" d="M843.5,-716C901.57,-716 918.55,-715.11 971.97,-715.01"/>
<polygon fill="black" stroke="black" points="972,-718.51 982,-715 972,-711.51 972,-718.51"/>
</g>
<!-- s2&#45;&gt;s3 -->
<g id="edge3" class="edge">
<title>s2:e&#45;&gt;s3:w</title>
<path fill="none" stroke="black" d="M843.5,-695C901.57,-695 918.55,-694.11 971.97,-694.01"/>
<polygon fill="black" stroke="black" points="972,-697.51 982,-694 972,-690.51 972,-697.51"/>
</g>
<!-- s3&#45;&gt;s2 -->
<g id="edge4" class="edge">
<title>s3:e&#45;&gt;s2:w</title>
<path fill="none" stroke="black" d="M1177,-705C1188.12,-705 1184.02,-687.7 1176,-680 1111.42,-617.95 1060.14,-653.81 974.5,-680 910.67,-699.52 913.83,-744.48 850,-764 578.63,-846.99 414.24,-962.56 211.5,-764 199.35,-752.1 192.38,-728.69 200.85,-719.66"/>
<polygon fill="black" stroke="black" points="202.39,-722.82 210.5,-716 199.91,-716.28 202.39,-722.82"/>
</g>
<!-- s124 -->
<g id="node5" class="node">
<title>s124</title>
<polygon fill="none" stroke="black" points="1316.5,-711 1316.5,-759 1589.5,-759 1589.5,-711 1316.5,-711"/>
<text text-anchor="start" x="1379.5" y="-745.8" font-family="Times,serif" font-weight="bold" font-size="14.00">MeshcatVisualizer</text>
<text text-anchor="start" x="1319.5" y="-731.8" font-family="Times,serif" font-size="14.00">name=meshcat_visualizer(visualizer)</text>
<text text-anchor="start" x="1371.5" y="-717.8" font-family="Times,serif" font-size="14.00">path=/drake/visualizer</text>
<polygon fill="none" stroke="black" points="1316.5,-690 1316.5,-711 1498.5,-711 1498.5,-690 1316.5,-690"/>
<text text-anchor="start" x="1361.5" y="-696.8" font-family="Times,serif" font-size="14.00">query_object</text>
<polyline fill="none" stroke="grey" points="1498.5,-690 1589.5,-690 1589.5,-711 "/>
</g>
<!-- s3&#45;&gt;s124 -->
<g id="edge5" class="edge">
<title>s3:e&#45;&gt;s124:w</title>
<path fill="none" stroke="black" d="M1177,-705C1235.11,-705 1252.02,-700.55 1305.46,-700.05"/>
<polygon fill="black" stroke="black" points="1305.52,-703.55 1315.5,-700 1305.48,-696.55 1305.52,-703.55"/>
</g>
<!-- meshcat_in -->
<g id="node6" class="node">
<title>meshcat_in</title>
<ellipse fill="none" stroke="magenta" cx="1683.05" cy="-725" rx="50.09" ry="18"/>
<text text-anchor="middle" x="1683.05" y="-721.3" font-family="Times,serif" font-size="14.00">Meshcat</text>
</g>
<!-- s124&#45;&gt;meshcat_in -->
<g id="edge1" class="edge">
<title>s124:e&#45;&gt;meshcat_in</title>
<path fill="none" stroke="magenta" stroke-dasharray="5,2" d="M1597,-725C1605.19,-725 1613.82,-725 1622.32,-725"/>
<polygon fill="magenta" stroke="magenta" points="1622.58,-728.5 1632.58,-725 1622.58,-721.5 1622.58,-728.5"/>
</g>
<!-- s125 -->
<g id="node7" class="node">
<title>s125</title>
<polygon fill="none" stroke="black" points="437.5,-49 437.5,-70 616.5,-70 616.5,-49 437.5,-49"/>
<text text-anchor="start" x="440.5" y="-56.8" font-family="Times,serif" font-weight="bold" font-size="14.00">utils.FlatnessInverter</text>
<polyline fill="none" stroke="grey" points="437.5,-49 437.5,-28 508.5,-28 "/>
<polygon fill="none" stroke="black" points="508.5,-28 508.5,-49 616.5,-49 616.5,-28 508.5,-28"/>
<text text-anchor="start" x="544" y="-34.8" font-family="Times,serif" font-size="14.00">state</text>
</g>
</g>
</svg>
