<?xml version="1.0" encoding="UTF-8" standalone="no"?>
<!DOCTYPE svg PUBLIC "-//W3C//DTD SVG 1.1//EN"
 "http://www.w3.org/Graphics/SVG/1.1/DTD/svg11.dtd">
<!-- Generated by graphviz version 2.43.0 (0)
 -->
<!-- Title: _145 Pages: 1 -->
<svg width="1452pt" height="835pt"
 viewBox="0.00 0.00 1452.09 835.08" xmlns="http://www.w3.org/2000/svg" xmlns:xlink="http://www.w3.org/1999/xlink">
<g id="graph0" class="graph" transform="scale(1 1) rotate(0) translate(4 831.08)">
<title>_145</title>
<polygon fill="white" stroke="transparent" points="-4,4 -4,-831.08 1448.09,-831.08 1448.09,4 -4,4"/>
<g id="clust1" class="cluster">
<title>cluster145diagram</title>
<polygon fill="none" stroke="black" points="8,-8 8,-811 1436.09,-811 1436.09,-8 8,-8"/>
<text text-anchor="start" x="688.05" y="-792.3" font-family="Times,serif" font-weight="bold" font-size="14.00">Diagram</text>
</g>
<g id="clust2" class="cluster">
<title>cluster145subsystems</title>
<polygon fill="none" stroke="white" points="16,-16 16,-772 1428.09,-772 1428.09,-16 16,-16"/>
</g>
<!-- s2 -->
<g id="node1" class="node">
<title>s2</title>
<polygon fill="none" stroke="black" points="32.5,-726 32.5,-760 663.5,-760 663.5,-726 32.5,-726"/>
<text text-anchor="start" x="286.5" y="-746.8" font-family="Times,serif" font-weight="bold" font-size="14.00">MultibodyPlant</text>
<text text-anchor="start" x="304" y="-732.8" font-family="Times,serif" font-size="14.00">name=plant</text>
<polygon fill="none" stroke="black" points="32.5,-705 32.5,-726 299.5,-726 299.5,-705 32.5,-705"/>
<text text-anchor="start" x="107.5" y="-711.8" font-family="Times,serif" font-size="14.00">geometry_query</text>
<polygon fill="none" stroke="black" points="299.5,-705 299.5,-726 663.5,-726 663.5,-705 299.5,-705"/>
<text text-anchor="start" x="427" y="-711.8" font-family="Times,serif" font-size="14.00">geometry_pose</text>
<polygon fill="none" stroke="black" points="32.5,-684 32.5,-705 299.5,-705 299.5,-684 32.5,-684"/>
<text text-anchor="start" x="132.5" y="-690.8" font-family="Times,serif" font-size="14.00">actuation</text>
<polygon fill="none" stroke="black" points="299.5,-684 299.5,-705 663.5,-705 663.5,-684 299.5,-684"/>
<text text-anchor="start" x="369.5" y="-690.8" font-family="Times,serif" font-size="14.00">deformable_body_configuration</text>
<polygon fill="none" stroke="black" points="32.5,-663 32.5,-684 299.5,-684 299.5,-663 32.5,-663"/>
<text text-anchor="start" x="73" y="-669.8" font-family="Times,serif" font-size="14.00">applied_generalized_force</text>
<polygon fill="none" stroke="black" points="299.5,-663 299.5,-684 663.5,-684 663.5,-663 299.5,-663"/>
<text text-anchor="start" x="463" y="-669.8" font-family="Times,serif" font-size="14.00">state</text>
<polygon fill="none" stroke="black" points="32.5,-642 32.5,-663 299.5,-663 299.5,-642 32.5,-642"/>
<text text-anchor="start" x="90.5" y="-648.8" font-family="Times,serif" font-size="14.00">applied_spatial_force</text>
<polygon fill="none" stroke="black" points="299.5,-642 299.5,-663 663.5,-663 663.5,-642 299.5,-642"/>
<text text-anchor="start" x="440.5" y="-648.8" font-family="Times,serif" font-size="14.00">body_poses</text>
<polygon fill="none" stroke="black" points="32.5,-621 32.5,-642 299.5,-642 299.5,-621 32.5,-621"/>
<text text-anchor="start" x="55.5" y="-627.8" font-family="Times,serif" font-size="14.00" fill="grey">WorldModelInstance_actuation</text>
<polygon fill="none" stroke="black" points="299.5,-621 299.5,-642 663.5,-642 663.5,-621 299.5,-621"/>
<text text-anchor="start" x="399.5" y="-627.8" font-family="Times,serif" font-size="14.00">body_spatial_velocities</text>
<polygon fill="none" stroke="black" points="32.5,-600 32.5,-621 299.5,-621 299.5,-600 32.5,-600"/>
<text text-anchor="start" x="41" y="-606.8" font-family="Times,serif" font-size="14.00" fill="grey">WorldModelInstance_desired_state</text>
<polygon fill="none" stroke="black" points="299.5,-600 299.5,-621 663.5,-621 663.5,-600 299.5,-600"/>
<text text-anchor="start" x="386" y="-606.8" font-family="Times,serif" font-size="14.00">body_spatial_accelerations</text>
<polygon fill="none" stroke="black" points="32.5,-579 32.5,-600 299.5,-600 299.5,-579 32.5,-579"/>
<text text-anchor="start" x="50" y="-585.8" font-family="Times,serif" font-size="14.00" fill="grey">DefaultModelInstance_actuation</text>
<polygon fill="none" stroke="black" points="299.5,-579 299.5,-600 663.5,-600 663.5,-579 299.5,-579"/>
<text text-anchor="start" x="392.5" y="-585.8" font-family="Times,serif" font-size="14.00">generalized_acceleration</text>
<polygon fill="none" stroke="black" points="32.5,-558 32.5,-579 299.5,-579 299.5,-558 32.5,-558"/>
<text text-anchor="start" x="35.5" y="-564.8" font-family="Times,serif" font-size="14.00" fill="grey">DefaultModelInstance_desired_state</text>
<polygon fill="none" stroke="black" points="299.5,-558 299.5,-579 663.5,-579 663.5,-558 299.5,-558"/>
<text text-anchor="start" x="433" y="-564.8" font-family="Times,serif" font-size="14.00">net_actuation</text>
<polygon fill="none" stroke="black" points="32.5,-537 32.5,-558 299.5,-558 299.5,-537 32.5,-537"/>
<text text-anchor="start" x="96" y="-543.8" font-family="Times,serif" font-size="14.00" fill="grey">table_top_actuation</text>
<polygon fill="none" stroke="black" points="299.5,-537 299.5,-558 663.5,-558 663.5,-537 299.5,-537"/>
<text text-anchor="start" x="427" y="-543.8" font-family="Times,serif" font-size="14.00">reaction_forces</text>
<polygon fill="none" stroke="black" points="32.5,-516 32.5,-537 299.5,-537 299.5,-516 32.5,-516"/>
<text text-anchor="start" x="81.5" y="-522.8" font-family="Times,serif" font-size="14.00" fill="grey">table_top_desired_state</text>
<polygon fill="none" stroke="black" points="299.5,-516 299.5,-537 663.5,-537 663.5,-516 299.5,-516"/>
<text text-anchor="start" x="427" y="-522.8" font-family="Times,serif" font-size="14.00">contact_results</text>
<polygon fill="none" stroke="black" points="32.5,-495 32.5,-516 299.5,-516 299.5,-495 32.5,-495"/>
<text text-anchor="start" x="92.5" y="-501.8" font-family="Times,serif" font-size="14.00" fill="grey">sugar_box_actuation</text>
<polygon fill="none" stroke="black" points="299.5,-495 299.5,-516 663.5,-516 663.5,-495 299.5,-495"/>
<text text-anchor="start" x="386.5" y="-501.8" font-family="Times,serif" font-size="14.00" fill="grey">WorldModelInstance_state</text>
<polygon fill="none" stroke="black" points="32.5,-474 32.5,-495 299.5,-495 299.5,-474 32.5,-474"/>
<text text-anchor="start" x="78" y="-480.8" font-family="Times,serif" font-size="14.00" fill="grey">sugar_box_desired_state</text>
<polygon fill="none" stroke="black" points="299.5,-474 299.5,-495 663.5,-495 663.5,-474 299.5,-474"/>
<text text-anchor="start" x="316" y="-480.8" font-family="Times,serif" font-size="14.00" fill="grey">WorldModelInstance_generalized_acceleration</text>
<polygon fill="none" stroke="black" points="32.5,-453 32.5,-474 299.5,-474 299.5,-453 32.5,-453"/>
<text text-anchor="start" x="108.5" y="-459.8" font-family="Times,serif" font-size="14.00">drone_actuation</text>
<polygon fill="none" stroke="black" points="299.5,-453 299.5,-474 663.5,-474 663.5,-453 299.5,-453"/>
<text text-anchor="start" x="308" y="-459.8" font-family="Times,serif" font-size="14.00" fill="grey">WorldModelInstance_generalized_contact_forces</text>
<polygon fill="none" stroke="black" points="32.5,-432 32.5,-453 299.5,-453 299.5,-432 32.5,-432"/>
<text text-anchor="start" x="93.5" y="-438.8" font-family="Times,serif" font-size="14.00" fill="grey">drone_desired_state</text>
<polygon fill="none" stroke="black" points="299.5,-432 299.5,-453 663.5,-453 663.5,-432 299.5,-432"/>
<text text-anchor="start" x="356" y="-438.8" font-family="Times,serif" font-size="14.00" fill="grey">WorldModelInstance_net_actuation</text>
<polyline fill="none" stroke="grey" points="32.5,-432 32.5,-96 299.5,-96 "/>
<polygon fill="none" stroke="black" points="299.5,-411 299.5,-432 663.5,-432 663.5,-411 299.5,-411"/>
<text text-anchor="start" x="381" y="-417.8" font-family="Times,serif" font-size="14.00" fill="grey">DefaultModelInstance_state</text>
<polygon fill="none" stroke="black" points="299.5,-390 299.5,-411 663.5,-411 663.5,-390 299.5,-390"/>
<text text-anchor="start" x="310.5" y="-396.8" font-family="Times,serif" font-size="14.00" fill="grey">DefaultModelInstance_generalized_acceleration</text>
<polygon fill="none" stroke="black" points="299.5,-369 299.5,-390 663.5,-390 663.5,-369 299.5,-369"/>
<text text-anchor="start" x="302.5" y="-375.8" font-family="Times,serif" font-size="14.00" fill="grey">DefaultModelInstance_generalized_contact_forces</text>
<polygon fill="none" stroke="black" points="299.5,-348 299.5,-369 663.5,-369 663.5,-348 299.5,-348"/>
<text text-anchor="start" x="350.5" y="-354.8" font-family="Times,serif" font-size="14.00" fill="grey">DefaultModelInstance_net_actuation</text>
<polygon fill="none" stroke="black" points="299.5,-327 299.5,-348 663.5,-348 663.5,-327 299.5,-327"/>
<text text-anchor="start" x="427" y="-333.8" font-family="Times,serif" font-size="14.00" fill="grey">table_top_state</text>
<polygon fill="none" stroke="black" points="299.5,-306 299.5,-327 663.5,-327 663.5,-306 299.5,-306"/>
<text text-anchor="start" x="356.5" y="-312.8" font-family="Times,serif" font-size="14.00" fill="grey">table_top_generalized_acceleration</text>
<polygon fill="none" stroke="black" points="299.5,-285 299.5,-306 663.5,-306 663.5,-285 299.5,-285"/>
<text text-anchor="start" x="348.5" y="-291.8" font-family="Times,serif" font-size="14.00" fill="grey">table_top_generalized_contact_forces</text>
<polygon fill="none" stroke="black" points="299.5,-264 299.5,-285 663.5,-285 663.5,-264 299.5,-264"/>
<text text-anchor="start" x="396.5" y="-270.8" font-family="Times,serif" font-size="14.00" fill="grey">table_top_net_actuation</text>
<polygon fill="none" stroke="black" points="299.5,-243 299.5,-264 663.5,-264 663.5,-243 299.5,-243"/>
<text text-anchor="start" x="423.5" y="-249.8" font-family="Times,serif" font-size="14.00">sugar_box_state</text>
<polygon fill="none" stroke="black" points="299.5,-222 299.5,-243 663.5,-243 663.5,-222 299.5,-222"/>
<text text-anchor="start" x="353" y="-228.8" font-family="Times,serif" font-size="14.00">sugar_box_generalized_acceleration</text>
<polygon fill="none" stroke="black" points="299.5,-201 299.5,-222 663.5,-222 663.5,-201 299.5,-201"/>
<text text-anchor="start" x="345" y="-207.8" font-family="Times,serif" font-size="14.00">sugar_box_generalized_contact_forces</text>
<polygon fill="none" stroke="black" points="299.5,-180 299.5,-201 663.5,-201 663.5,-180 299.5,-180"/>
<text text-anchor="start" x="393" y="-186.8" font-family="Times,serif" font-size="14.00" fill="grey">sugar_box_net_actuation</text>
<polygon fill="none" stroke="black" points="299.5,-159 299.5,-180 663.5,-180 663.5,-159 299.5,-159"/>
<text text-anchor="start" x="439" y="-165.8" font-family="Times,serif" font-size="14.00">drone_state</text>
<polygon fill="none" stroke="black" points="299.5,-138 299.5,-159 663.5,-159 663.5,-138 299.5,-138"/>
<text text-anchor="start" x="368.5" y="-144.8" font-family="Times,serif" font-size="14.00">drone_generalized_acceleration</text>
<polygon fill="none" stroke="black" points="299.5,-117 299.5,-138 663.5,-138 663.5,-117 299.5,-117"/>
<text text-anchor="start" x="361" y="-123.8" font-family="Times,serif" font-size="14.00">drone_generalized_contact_forces</text>
<polygon fill="none" stroke="black" points="299.5,-96 299.5,-117 663.5,-117 663.5,-96 299.5,-96"/>
<text text-anchor="start" x="409" y="-102.8" font-family="Times,serif" font-size="14.00">drone_net_actuation</text>
</g>
<!-- s3 -->
<g id="node2" class="node">
<title>s3</title>
<polygon fill="none" stroke="black" points="737,-726 737,-760 930,-760 930,-726 737,-726"/>
<text text-anchor="start" x="785.5" y="-746.8" font-family="Times,serif" font-weight="bold" font-size="14.00">SceneGraph</text>
<text text-anchor="start" x="763" y="-732.8" font-family="Times,serif" font-size="14.00">name=scene_graph</text>
<polygon fill="none" stroke="black" points="737,-705 737,-726 882,-726 882,-705 737,-705"/>
<text text-anchor="start" x="771" y="-711.8" font-family="Times,serif" font-size="14.00">plant_pose</text>
<polygon fill="none" stroke="black" points="882,-684 882,-726 930,-726 930,-684 882,-684"/>
<text text-anchor="start" x="885" y="-701.3" font-family="Times,serif" font-size="14.00">query</text>
<polygon fill="none" stroke="black" points="737,-684 737,-705 882,-705 882,-684 737,-684"/>
<text text-anchor="start" x="740" y="-690.8" font-family="Times,serif" font-size="14.00">plant_configuration</text>
</g>
<!-- s2&#45;&gt;s3 -->
<g id="edge2" class="edge">
<title>s2:e&#45;&gt;s3:w</title>
<path fill="none" stroke="black" d="M664.5,-716C692.56,-716 702.03,-715.22 725.73,-715.04"/>
<polygon fill="black" stroke="black" points="726.01,-718.54 736,-715 725.99,-711.54 726.01,-718.54"/>
</g>
<!-- s2&#45;&gt;s3 -->
<g id="edge3" class="edge">
<title>s2:e&#45;&gt;s3:w</title>
<path fill="none" stroke="black" d="M664.5,-695C692.56,-695 702.03,-694.22 725.73,-694.04"/>
<polygon fill="black" stroke="black" points="726.01,-697.54 736,-694 725.99,-690.54 726.01,-697.54"/>
</g>
<!-- s141 -->
<g id="node6" class="node">
<title>s141</title>
<polygon fill="none" stroke="black" points="753,-180 753,-201 913,-201 913,-180 753,-180"/>
<text text-anchor="start" x="756" y="-187.8" font-family="Times,serif" font-weight="bold" font-size="14.00">utils.ArmTrajectory</text>
<polygon fill="none" stroke="black" points="753,-159 753,-180 836,-180 836,-159 753,-159"/>
<text text-anchor="start" x="761" y="-165.8" font-family="Times,serif" font-size="14.00">cur_state</text>
<polygon fill="none" stroke="black" points="836,-159 836,-180 913,-180 913,-159 836,-159"/>
<text text-anchor="start" x="844" y="-165.8" font-family="Times,serif" font-size="14.00">arm_des</text>
</g>
<!-- s2&#45;&gt;s141 -->
<g id="edge7" class="edge">
<title>s2:e&#45;&gt;s141:w</title>
<path fill="none" stroke="black" d="M664.5,-169C699.74,-169 711.03,-169 741.78,-169"/>
<polygon fill="black" stroke="black" points="742,-172.5 752,-169 742,-165.5 742,-172.5"/>
</g>
<!-- s142 -->
<g id="node7" class="node">
<title>s142</title>
<polygon fill="none" stroke="black" points="1056.5,-235 1056.5,-269 1222.5,-269 1222.5,-235 1056.5,-235"/>
<text text-anchor="start" x="1059.5" y="-255.8" font-family="Times,serif" font-weight="bold" font-size="14.00">utils.JointController</text>
<text text-anchor="start" x="1061" y="-241.8" font-family="Times,serif" font-size="14.00">name=arm_controller</text>
<polygon fill="none" stroke="black" points="1056.5,-214 1056.5,-235 1145.5,-235 1145.5,-214 1056.5,-214"/>
<text text-anchor="start" x="1067.5" y="-220.8" font-family="Times,serif" font-size="14.00">cur_state</text>
<polygon fill="none" stroke="black" points="1145.5,-193 1145.5,-235 1222.5,-235 1222.5,-193 1145.5,-193"/>
<text text-anchor="start" x="1156.5" y="-210.3" font-family="Times,serif" font-size="14.00">qd_cmd</text>
<polygon fill="none" stroke="black" points="1056.5,-193 1056.5,-214 1145.5,-214 1145.5,-193 1056.5,-193"/>
<text text-anchor="start" x="1080.5" y="-199.8" font-family="Times,serif" font-size="14.00">q_des</text>
</g>
<!-- s2&#45;&gt;s142 -->
<g id="edge8" class="edge">
<title>s2:e&#45;&gt;s142:w</title>
<path fill="none" stroke="black" d="M664.5,-169C692.01,-169 681.9,-202.75 707,-214 740.07,-228.82 982.38,-224.66 1045.2,-224.07"/>
<polygon fill="black" stroke="black" points="1045.52,-227.56 1055.5,-224 1045.48,-220.56 1045.52,-227.56"/>
</g>
<!-- s143 -->
<g id="node8" class="node">
<title>s143</title>
<polygon fill="none" stroke="black" points="715,-623 715,-657 951,-657 951,-623 715,-623"/>
<text text-anchor="start" x="726" y="-643.8" font-family="Times,serif" font-weight="bold" font-size="14.00">utils.DroneRotorController</text>
<text text-anchor="start" x="749.5" y="-629.8" font-family="Times,serif" font-size="14.00">name=drone controller</text>
<polygon fill="none" stroke="black" points="715,-602 715,-623 866,-623 866,-602 715,-602"/>
<text text-anchor="start" x="719.5" y="-608.8" font-family="Times,serif" font-size="14.00">drone_pose_current</text>
<polygon fill="none" stroke="black" points="866,-560 866,-623 951,-623 951,-560 866,-560"/>
<text text-anchor="start" x="869" y="-587.8" font-family="Times,serif" font-size="14.00">rotor_force</text>
<polygon fill="none" stroke="black" points="715,-581 715,-602 866,-602 866,-581 715,-581"/>
<text text-anchor="start" x="725.5" y="-587.8" font-family="Times,serif" font-size="14.00">drone_vel_current</text>
<polygon fill="none" stroke="black" points="715,-560 715,-581 866,-581 866,-560 715,-560"/>
<text text-anchor="start" x="718" y="-566.8" font-family="Times,serif" font-size="14.00">drone_state_desired</text>
</g>
<!-- s2&#45;&gt;s143 -->
<g id="edge11" class="edge">
<title>s2:e&#45;&gt;s143:w</title>
<path fill="none" stroke="black" d="M664.5,-653C688.81,-653 687,-623.46 703.97,-615.15"/>
<polygon fill="black" stroke="black" points="704.96,-618.52 714,-613 703.49,-611.67 704.96,-618.52"/>
</g>
<!-- s2&#45;&gt;s143 -->
<g id="edge12" class="edge">
<title>s2:e&#45;&gt;s143:w</title>
<path fill="none" stroke="black" d="M664.5,-632C689.05,-632 686.86,-601.72 703.89,-593.2"/>
<polygon fill="black" stroke="black" points="704.98,-596.55 714,-591 703.48,-589.71 704.98,-596.55"/>
</g>
<!-- s3&#45;&gt;s2 -->
<g id="edge4" class="edge">
<title>s3:e&#45;&gt;s2:w</title>
<path fill="none" stroke="black" d="M931,-705C942.12,-705 938.02,-687.7 930,-680 913.86,-664.49 748.3,-669.56 728.5,-680 688.48,-701.1 711.02,-742.9 671,-764 545.49,-830.18 133.87,-863.28 32.5,-764 20.35,-752.1 13.38,-728.69 21.85,-719.66"/>
<polygon fill="black" stroke="black" points="23.39,-722.82 31.5,-716 20.91,-716.28 23.39,-722.82"/>
</g>
<!-- s139 -->
<g id="node3" class="node">
<title>s139</title>
<polygon fill="none" stroke="black" points="1003.5,-711 1003.5,-759 1276.5,-759 1276.5,-711 1003.5,-711"/>
<text text-anchor="start" x="1066.5" y="-745.8" font-family="Times,serif" font-weight="bold" font-size="14.00">MeshcatVisualizer</text>
<text text-anchor="start" x="1006.5" y="-731.8" font-family="Times,serif" font-size="14.00">name=meshcat_visualizer(visualizer)</text>
<text text-anchor="start" x="1058.5" y="-717.8" font-family="Times,serif" font-size="14.00">path=/drake/visualizer</text>
<polygon fill="none" stroke="black" points="1003.5,-690 1003.5,-711 1185.5,-711 1185.5,-690 1003.5,-690"/>
<text text-anchor="start" x="1048.5" y="-696.8" font-family="Times,serif" font-size="14.00">query_object</text>
<polyline fill="none" stroke="grey" points="1185.5,-690 1276.5,-690 1276.5,-711 "/>
</g>
<!-- s3&#45;&gt;s139 -->
<g id="edge10" class="edge">
<title>s3:e&#45;&gt;s139:w</title>
<path fill="none" stroke="black" d="M931,-705C959.12,-705 968.49,-701.1 992.21,-700.19"/>
<polygon fill="black" stroke="black" points="992.57,-703.68 1002.5,-700 992.44,-696.69 992.57,-703.68"/>
</g>
<!-- meshcat_in -->
<g id="node4" class="node">
<title>meshcat_in</title>
<ellipse fill="none" stroke="magenta" cx="1370.05" cy="-725" rx="50.09" ry="18"/>
<text text-anchor="middle" x="1370.05" y="-721.3" font-family="Times,serif" font-size="14.00">Meshcat</text>
</g>
<!-- s139&#45;&gt;meshcat_in -->
<g id="edge1" class="edge">
<title>s139:e&#45;&gt;meshcat_in</title>
<path fill="none" stroke="magenta" stroke-dasharray="5,2" d="M1284,-725C1292.19,-725 1300.82,-725 1309.32,-725"/>
<polygon fill="magenta" stroke="magenta" points="1309.58,-728.5 1319.58,-725 1309.58,-721.5 1309.58,-728.5"/>
</g>
<!-- s140 -->
<g id="node5" class="node">
<title>s140</title>
<polygon fill="none" stroke="black" points="258.5,-49 258.5,-70 437.5,-70 437.5,-49 258.5,-49"/>
<text text-anchor="start" x="261.5" y="-56.8" font-family="Times,serif" font-weight="bold" font-size="14.00">utils.FlatnessInverter</text>
<polyline fill="none" stroke="grey" points="258.5,-49 258.5,-28 329.5,-28 "/>
<polygon fill="none" stroke="black" points="329.5,-28 329.5,-49 437.5,-49 437.5,-28 329.5,-28"/>
<text text-anchor="start" x="365" y="-34.8" font-family="Times,serif" font-size="14.00">state</text>
</g>
<!-- s140&#45;&gt;s143 -->
<g id="edge13" class="edge">
<title>s140:e&#45;&gt;s143:w</title>
<path fill="none" stroke="black" d="M438.5,-38C543.75,-38 600.51,-4.84 671,-83 705.11,-120.82 665.31,-515.75 704.96,-564.97"/>
<polygon fill="black" stroke="black" points="703.56,-568.2 714,-570 706.96,-562.08 703.56,-568.2"/>
</g>
<!-- s141&#45;&gt;s142 -->
<g id="edge9" class="edge">
<title>s141:e&#45;&gt;s142:w</title>
<path fill="none" stroke="black" d="M914,-169C975.14,-169 989.34,-199.38 1045.34,-202.71"/>
<polygon fill="black" stroke="black" points="1045.4,-206.21 1055.5,-203 1045.61,-199.21 1045.4,-206.21"/>
</g>
<!-- s142&#45;&gt;s2 -->
<g id="edge6" class="edge">
<title>s142:e&#45;&gt;s2:w</title>
<path fill="none" stroke="black" d="M1223.5,-214C1251.92,-214 1272.67,-92.85 1048.5,-189 846.12,-275.81 805.31,-350.95 707,-548 663.55,-635.09 745.26,-701.09 671,-764 616.87,-809.86 82.75,-814.08 32.5,-764 11.01,-742.58 0.2,-511.64 23.56,-470.31"/>
<polygon fill="black" stroke="black" points="25.85,-472.96 31.5,-464 21.49,-467.48 25.85,-472.96"/>
</g>
<!-- s143&#45;&gt;s2 -->
<g id="edge5" class="edge">
<title>s143:e&#45;&gt;s2:w</title>
<path fill="none" stroke="black" d="M952,-591C986.94,-591 1031.3,-283.62 707,-556.5 635.38,-616.76 742.62,-703.74 671,-764 616.72,-809.68 82.89,-813.94 32.5,-764 17.51,-749.15 9.38,-678.47 22.79,-658.35"/>
<polygon fill="black" stroke="black" points="24.81,-661.22 31.5,-653 21.15,-655.26 24.81,-661.22"/>
</g>
</g>
</svg>
