<?xml version="1.0" encoding="UTF-8" standalone="no"?>
<!DOCTYPE svg PUBLIC "-//W3C//DTD SVG 1.1//EN"
 "http://www.w3.org/Graphics/SVG/1.1/DTD/svg11.dtd">
<!-- Generated by graphviz version 2.43.0 (0)
 -->
<!-- Title: _145 Pages: 1 -->
<svg width="1467pt" height="834pt"
 viewBox="0.00 0.00 1467.09 833.82" xmlns="http://www.w3.org/2000/svg" xmlns:xlink="http://www.w3.org/1999/xlink">
<g id="graph0" class="graph" transform="scale(1 1) rotate(0) translate(4 829.82)">
<title>_145</title>
<polygon fill="white" stroke="transparent" points="-4,4 -4,-829.82 1463.09,-829.82 1463.09,4 -4,4"/>
<g id="clust1" class="cluster">
<title>cluster145diagram</title>
<polygon fill="none" stroke="black" points="8,-8 8,-811 1451.09,-811 1451.09,-8 8,-8"/>
<text text-anchor="start" x="695.55" y="-792.3" font-family="Times,serif" font-weight="bold" font-size="14.00">Diagram</text>
</g>
<g id="clust2" class="cluster">
<title>cluster145subsystems</title>
<polygon fill="none" stroke="white" points="16,-16 16,-772 1443.09,-772 1443.09,-16 16,-16"/>
</g>
<!-- s2 -->
<g id="node1" class="node">
<title>s2</title>
<polygon fill="none" stroke="black" points="32.5,-726 32.5,-760 663.5,-760 663.5,-726 32.5,-726"/>
<text text-anchor="start" x="286.5" y="-746.8" font-family="Times,serif" font-weight="bold" font-size="14.00">MultibodyPlant</text>
<text text-anchor="start" x="304" y="-732.8" font-family="Times,serif" font-size="14.00">name=plant</text>
<polygon fill="none" stroke="black" points="32.5,-705 32.5,-726 299.5,-726 299.5,-705 32.5,-705"/>
<text text-anchor="start" x="107.5" y="-711.8" font-family="Times,serif" font-size="14.00">geometry_query</text>
<polygon fill="none" stroke="black" points="299.5,-705 299.5,-726 663.5,-726 663.5,-705 299.5,-705"/>
<text text-anchor="start" x="427" y="-711.8" font-family="Times,serif" font-size="14.00">geometry_pose</text>
<polygon fill="none" stroke="black" points="32.5,-684 32.5,-705 299.5,-705 299.5,-684 32.5,-684"/>
<text text-anchor="start" x="132.5" y="-690.8" font-family="Times,serif" font-size="14.00">actuation</text>
<polygon fill="none" stroke="black" points="299.5,-684 299.5,-705 663.5,-705 663.5,-684 299.5,-684"/>
<text text-anchor="start" x="369.5" y="-690.8" font-family="Times,serif" font-size="14.00">deformable_body_configuration</text>
<polygon fill="none" stroke="black" points="32.5,-663 32.5,-684 299.5,-684 299.5,-663 32.5,-663"/>
<text text-anchor="start" x="73" y="-669.8" font-family="Times,serif" font-size="14.00">applied_generalized_force</text>
<polygon fill="none" stroke="black" points="299.5,-663 299.5,-684 663.5,-684 663.5,-663 299.5,-663"/>
<text text-anchor="start" x="463" y="-669.8" font-family="Times,serif" font-size="14.00">state</text>
<polygon fill="none" stroke="black" points="32.5,-642 32.5,-663 299.5,-663 299.5,-642 32.5,-642"/>
<text text-anchor="start" x="90.5" y="-648.8" font-family="Times,serif" font-size="14.00">applied_spatial_force</text>
<polygon fill="none" stroke="black" points="299.5,-642 299.5,-663 663.5,-663 663.5,-642 299.5,-642"/>
<text text-anchor="start" x="440.5" y="-648.8" font-family="Times,serif" font-size="14.00">body_poses</text>
<polygon fill="none" stroke="black" points="32.5,-621 32.5,-642 299.5,-642 299.5,-621 32.5,-621"/>
<text text-anchor="start" x="55.5" y="-627.8" font-family="Times,serif" font-size="14.00" fill="grey">WorldModelInstance_actuation</text>
<polygon fill="none" stroke="black" points="299.5,-621 299.5,-642 663.5,-642 663.5,-621 299.5,-621"/>
<text text-anchor="start" x="399.5" y="-627.8" font-family="Times,serif" font-size="14.00">body_spatial_velocities</text>
<polygon fill="none" stroke="black" points="32.5,-600 32.5,-621 299.5,-621 299.5,-600 32.5,-600"/>
<text text-anchor="start" x="41" y="-606.8" font-family="Times,serif" font-size="14.00" fill="grey">WorldModelInstance_desired_state</text>
<polygon fill="none" stroke="black" points="299.5,-600 299.5,-621 663.5,-621 663.5,-600 299.5,-600"/>
<text text-anchor="start" x="386" y="-606.8" font-family="Times,serif" font-size="14.00">body_spatial_accelerations</text>
<polygon fill="none" stroke="black" points="32.5,-579 32.5,-600 299.5,-600 299.5,-579 32.5,-579"/>
<text text-anchor="start" x="50" y="-585.8" font-family="Times,serif" font-size="14.00" fill="grey">DefaultModelInstance_actuation</text>
<polygon fill="none" stroke="black" points="299.5,-579 299.5,-600 663.5,-600 663.5,-579 299.5,-579"/>
<text text-anchor="start" x="392.5" y="-585.8" font-family="Times,serif" font-size="14.00">generalized_acceleration</text>
<polygon fill="none" stroke="black" points="32.5,-558 32.5,-579 299.5,-579 299.5,-558 32.5,-558"/>
<text text-anchor="start" x="35.5" y="-564.8" font-family="Times,serif" font-size="14.00" fill="grey">DefaultModelInstance_desired_state</text>
<polygon fill="none" stroke="black" points="299.5,-558 299.5,-579 663.5,-579 663.5,-558 299.5,-558"/>
<text text-anchor="start" x="433" y="-564.8" font-family="Times,serif" font-size="14.00">net_actuation</text>
<polygon fill="none" stroke="black" points="32.5,-537 32.5,-558 299.5,-558 299.5,-537 32.5,-537"/>
<text text-anchor="start" x="96" y="-543.8" font-family="Times,serif" font-size="14.00" fill="grey">table_top_actuation</text>
<polygon fill="none" stroke="black" points="299.5,-537 299.5,-558 663.5,-558 663.5,-537 299.5,-537"/>
<text text-anchor="start" x="427" y="-543.8" font-family="Times,serif" font-size="14.00">reaction_forces</text>
<polygon fill="none" stroke="black" points="32.5,-516 32.5,-537 299.5,-537 299.5,-516 32.5,-516"/>
<text text-anchor="start" x="81.5" y="-522.8" font-family="Times,serif" font-size="14.00" fill="grey">table_top_desired_state</text>
<polygon fill="none" stroke="black" points="299.5,-516 299.5,-537 663.5,-537 663.5,-516 299.5,-516"/>
<text text-anchor="start" x="427" y="-522.8" font-family="Times,serif" font-size="14.00">contact_results</text>
<polygon fill="none" stroke="black" points="32.5,-495 32.5,-516 299.5,-516 299.5,-495 32.5,-495"/>
<text text-anchor="start" x="92.5" y="-501.8" font-family="Times,serif" font-size="14.00" fill="grey">sugar_box_actuation</text>
<polygon fill="none" stroke="black" points="299.5,-495 299.5,-516 663.5,-516 663.5,-495 299.5,-495"/>
<text text-anchor="start" x="386.5" y="-501.8" font-family="Times,serif" font-size="14.00" fill="grey">WorldModelInstance_state</text>
<polygon fill="none" stroke="black" points="32.5,-474 32.5,-495 299.5,-495 299.5,-474 32.5,-474"/>
<text text-anchor="start" x="78" y="-480.8" font-family="Times,serif" font-size="14.00" fill="grey">sugar_box_desired_state</text>
<polygon fill="none" stroke="black" points="299.5,-474 299.5,-495 663.5,-495 663.5,-474 299.5,-474"/>
<text text-anchor="start" x="316" y="-480.8" font-family="Times,serif" font-size="14.00" fill="grey">WorldModelInstance_generalized_acceleration</text>
<polygon fill="none" stroke="black" points="32.5,-453 32.5,-474 299.5,-474 299.5,-453 32.5,-453"/>
<text text-anchor="start" x="108.5" y="-459.8" font-family="Times,serif" font-size="14.00">drone_actuation</text>
<polygon fill="none" stroke="black" points="299.5,-453 299.5,-474 663.5,-474 663.5,-453 299.5,-453"/>
<text text-anchor="start" x="308" y="-459.8" font-family="Times,serif" font-size="14.00" fill="grey">WorldModelInstance_generalized_contact_forces</text>
<polygon fill="none" stroke="black" points="32.5,-432 32.5,-453 299.5,-453 299.5,-432 32.5,-432"/>
<text text-anchor="start" x="93.5" y="-438.8" font-family="Times,serif" font-size="14.00" fill="grey">drone_desired_state</text>
<polygon fill="none" stroke="black" points="299.5,-432 299.5,-453 663.5,-453 663.5,-432 299.5,-432"/>
<text text-anchor="start" x="356" y="-438.8" font-family="Times,serif" font-size="14.00" fill="grey">WorldModelInstance_net_actuation</text>
<polyline fill="none" stroke="grey" points="32.5,-432 32.5,-96 299.5,-96 "/>
<polygon fill="none" stroke="black" points="299.5,-411 299.5,-432 663.5,-432 663.5,-411 299.5,-411"/>
<text text-anchor="start" x="381" y="-417.8" font-family="Times,serif" font-size="14.00" fill="grey">DefaultModelInstance_state</text>
<polygon fill="none" stroke="black" points="299.5,-390 299.5,-411 663.5,-411 663.5,-390 299.5,-390"/>
<text text-anchor="start" x="310.5" y="-396.8" font-family="Times,serif" font-size="14.00" fill="grey">DefaultModelInstance_generalized_acceleration</text>
<polygon fill="none" stroke="black" points="299.5,-369 299.5,-390 663.5,-390 663.5,-369 299.5,-369"/>
<text text-anchor="start" x="302.5" y="-375.8" font-family="Times,serif" font-size="14.00" fill="grey">DefaultModelInstance_generalized_contact_forces</text>
<polygon fill="none" stroke="black" points="299.5,-348 299.5,-369 663.5,-369 663.5,-348 299.5,-348"/>
<text text-anchor="start" x="350.5" y="-354.8" font-family="Times,serif" font-size="14.00" fill="grey">DefaultModelInstance_net_actuation</text>
<polygon fill="none" stroke="black" points="299.5,-327 299.5,-348 663.5,-348 663.5,-327 299.5,-327"/>
<text text-anchor="start" x="427" y="-333.8" font-family="Times,serif" font-size="14.00" fill="grey">table_top_state</text>
<polygon fill="none" stroke="black" points="299.5,-306 299.5,-327 663.5,-327 663.5,-306 299.5,-306"/>
<text text-anchor="start" x="356.5" y="-312.8" font-family="Times,serif" font-size="14.00" fill="grey">table_top_generalized_acceleration</text>
<polygon fill="none" stroke="black" points="299.5,-285 299.5,-306 663.5,-306 663.5,-285 299.5,-285"/>
<text text-anchor="start" x="348.5" y="-291.8" font-family="Times,serif" font-size="14.00" fill="grey">table_top_generalized_contact_forces</text>
<polygon fill="none" stroke="black" points="299.5,-264 299.5,-285 663.5,-285 663.5,-264 299.5,-264"/>
<text text-anchor="start" x="396.5" y="-270.8" font-family="Times,serif" font-size="14.00" fill="grey">table_top_net_actuation</text>
<polygon fill="none" stroke="black" points="299.5,-243 299.5,-264 663.5,-264 663.5,-243 299.5,-243"/>
<text text-anchor="start" x="423.5" y="-249.8" font-family="Times,serif" font-size="14.00">sugar_box_state</text>
<polygon fill="none" stroke="black" points="299.5,-222 299.5,-243 663.5,-243 663.5,-222 299.5,-222"/>
<text text-anchor="start" x="353" y="-228.8" font-family="Times,serif" font-size="14.00">sugar_box_generalized_acceleration</text>
<polygon fill="none" stroke="black" points="299.5,-201 299.5,-222 663.5,-222 663.5,-201 299.5,-201"/>
<text text-anchor="start" x="345" y="-207.8" font-family="Times,serif" font-size="14.00">sugar_box_generalized_contact_forces</text>
<polygon fill="none" stroke="black" points="299.5,-180 299.5,-201 663.5,-201 663.5,-180 299.5,-180"/>
<text text-anchor="start" x="393" y="-186.8" font-family="Times,serif" font-size="14.00" fill="grey">sugar_box_net_actuation</text>
<polygon fill="none" stroke="black" points="299.5,-159 299.5,-180 663.5,-180 663.5,-159 299.5,-159"/>
<text text-anchor="start" x="439" y="-165.8" font-family="Times,serif" font-size="14.00">drone_state</text>
<polygon fill="none" stroke="black" points="299.5,-138 299.5,-159 663.5,-159 663.5,-138 299.5,-138"/>
<text text-anchor="start" x="368.5" y="-144.8" font-family="Times,serif" font-size="14.00">drone_generalized_acceleration</text>
<polygon fill="none" stroke="black" points="299.5,-117 299.5,-138 663.5,-138 663.5,-117 299.5,-117"/>
<text text-anchor="start" x="361" y="-123.8" font-family="Times,serif" font-size="14.00">drone_generalized_contact_forces</text>
<polygon fill="none" stroke="black" points="299.5,-96 299.5,-117 663.5,-117 663.5,-96 299.5,-96"/>
<text text-anchor="start" x="409" y="-102.8" font-family="Times,serif" font-size="14.00">drone_net_actuation</text>
</g>
<!-- s3 -->
<g id="node2" class="node">
<title>s3</title>
<polygon fill="none" stroke="black" points="744.5,-726 744.5,-760 937.5,-760 937.5,-726 744.5,-726"/>
<text text-anchor="start" x="793" y="-746.8" font-family="Times,serif" font-weight="bold" font-size="14.00">SceneGraph</text>
<text text-anchor="start" x="770.5" y="-732.8" font-family="Times,serif" font-size="14.00">name=scene_graph</text>
<polygon fill="none" stroke="black" points="744.5,-705 744.5,-726 889.5,-726 889.5,-705 744.5,-705"/>
<text text-anchor="start" x="778.5" y="-711.8" font-family="Times,serif" font-size="14.00">plant_pose</text>
<polygon fill="none" stroke="black" points="889.5,-684 889.5,-726 937.5,-726 937.5,-684 889.5,-684"/>
<text text-anchor="start" x="892.5" y="-701.3" font-family="Times,serif" font-size="14.00">query</text>
<polygon fill="none" stroke="black" points="744.5,-684 744.5,-705 889.5,-705 889.5,-684 744.5,-684"/>
<text text-anchor="start" x="747.5" y="-690.8" font-family="Times,serif" font-size="14.00">plant_configuration</text>
</g>
<!-- s2&#45;&gt;s3 -->
<g id="edge2" class="edge">
<title>s2:e&#45;&gt;s3:w</title>
<path fill="none" stroke="black" d="M664.5,-716C695.91,-716 706.24,-715.2 733.21,-715.03"/>
<polygon fill="black" stroke="black" points="733.51,-718.53 743.5,-715 733.49,-711.53 733.51,-718.53"/>
</g>
<!-- s2&#45;&gt;s3 -->
<g id="edge3" class="edge">
<title>s2:e&#45;&gt;s3:w</title>
<path fill="none" stroke="black" d="M664.5,-695C695.91,-695 706.24,-694.2 733.21,-694.03"/>
<polygon fill="black" stroke="black" points="733.51,-697.53 743.5,-694 733.49,-690.53 733.51,-697.53"/>
</g>
<!-- s141 -->
<g id="node6" class="node">
<title>s141</title>
<polygon fill="none" stroke="black" points="734.5,-180 734.5,-201 947.5,-201 947.5,-180 734.5,-180"/>
<text text-anchor="start" x="766" y="-187.8" font-family="Times,serif" font-weight="bold" font-size="14.00">Traj.ArmTrajectory</text>
<polygon fill="none" stroke="black" points="734.5,-159 734.5,-180 840.5,-180 840.5,-159 734.5,-159"/>
<text text-anchor="start" x="737.5" y="-165.8" font-family="Times,serif" font-size="14.00">arm.state_cur</text>
<polygon fill="none" stroke="black" points="840.5,-159 840.5,-180 947.5,-180 947.5,-159 840.5,-159"/>
<text text-anchor="start" x="843.5" y="-165.8" font-family="Times,serif" font-size="14.00">arm.state_des</text>
</g>
<!-- s2&#45;&gt;s141 -->
<g id="edge7" class="edge">
<title>s2:e&#45;&gt;s141:w</title>
<path fill="none" stroke="black" d="M664.5,-169C691.45,-169 700.64,-169 723.29,-169"/>
<polygon fill="black" stroke="black" points="723.5,-172.5 733.5,-169 723.5,-165.5 723.5,-172.5"/>
</g>
<!-- s142 -->
<g id="node7" class="node">
<title>s142</title>
<polygon fill="none" stroke="black" points="1054.5,-235 1054.5,-269 1254.5,-269 1254.5,-235 1054.5,-235"/>
<text text-anchor="start" x="1062.5" y="-255.8" font-family="Times,serif" font-weight="bold" font-size="14.00">Control.JointController</text>
<text text-anchor="start" x="1077.5" y="-241.8" font-family="Times,serif" font-size="14.00">name=arm controller</text>
<polygon fill="none" stroke="black" points="1054.5,-214 1054.5,-235 1160.5,-235 1160.5,-214 1054.5,-214"/>
<text text-anchor="start" x="1057.5" y="-220.8" font-family="Times,serif" font-size="14.00">arm.state_cur</text>
<polygon fill="none" stroke="black" points="1160.5,-193 1160.5,-235 1254.5,-235 1254.5,-193 1160.5,-193"/>
<text text-anchor="start" x="1163.5" y="-210.3" font-family="Times,serif" font-size="14.00">arm.qd_cmd</text>
<polygon fill="none" stroke="black" points="1054.5,-193 1054.5,-214 1160.5,-214 1160.5,-193 1054.5,-193"/>
<text text-anchor="start" x="1070.5" y="-199.8" font-family="Times,serif" font-size="14.00">arm.q_des</text>
</g>
<!-- s2&#45;&gt;s142 -->
<g id="edge8" class="edge">
<title>s2:e&#45;&gt;s142:w</title>
<path fill="none" stroke="black" d="M664.5,-169C692.01,-169 681.9,-202.75 707,-214 774.41,-244.22 960.35,-225.68 1043.42,-224.1"/>
<polygon fill="black" stroke="black" points="1043.54,-227.6 1053.5,-224 1043.46,-220.6 1043.54,-227.6"/>
</g>
<!-- s143 -->
<g id="node8" class="node">
<title>s143</title>
<polygon fill="none" stroke="black" points="715.5,-623 715.5,-657 966.5,-657 966.5,-623 715.5,-623"/>
<text text-anchor="start" x="722" y="-643.8" font-family="Times,serif" font-weight="bold" font-size="14.00">Control.DroneRotorController</text>
<text text-anchor="start" x="757.5" y="-629.8" font-family="Times,serif" font-size="14.00">name=drone controller</text>
<polygon fill="none" stroke="black" points="715.5,-602 715.5,-623 835.5,-623 835.5,-602 715.5,-602"/>
<text text-anchor="start" x="721" y="-608.8" font-family="Times,serif" font-size="14.00">drone.pose_cur</text>
<polygon fill="none" stroke="black" points="835.5,-560 835.5,-623 966.5,-623 966.5,-560 835.5,-560"/>
<text text-anchor="start" x="838.5" y="-587.8" font-family="Times,serif" font-size="14.00">drone.rotor_force</text>
<polygon fill="none" stroke="black" points="715.5,-581 715.5,-602 835.5,-602 835.5,-581 715.5,-581"/>
<text text-anchor="start" x="727" y="-587.8" font-family="Times,serif" font-size="14.00">drone.vel_cur</text>
<polygon fill="none" stroke="black" points="715.5,-560 715.5,-581 835.5,-581 835.5,-560 715.5,-560"/>
<text text-anchor="start" x="718.5" y="-566.8" font-family="Times,serif" font-size="14.00">drone.state_des</text>
</g>
<!-- s2&#45;&gt;s143 -->
<g id="edge10" class="edge">
<title>s2:e&#45;&gt;s143:w</title>
<path fill="none" stroke="black" d="M664.5,-653C688.96,-653 687.29,-623.46 704.4,-615.15"/>
<polygon fill="black" stroke="black" points="705.45,-618.51 714.5,-613 703.99,-611.66 705.45,-618.51"/>
</g>
<!-- s2&#45;&gt;s143 -->
<g id="edge11" class="edge">
<title>s2:e&#45;&gt;s143:w</title>
<path fill="none" stroke="black" d="M664.5,-632C689.2,-632 687.15,-601.72 704.32,-593.2"/>
<polygon fill="black" stroke="black" points="705.47,-596.54 714.5,-591 703.99,-589.7 705.47,-596.54"/>
</g>
<!-- s3&#45;&gt;s2 -->
<g id="edge4" class="edge">
<title>s3:e&#45;&gt;s2:w</title>
<path fill="none" stroke="black" d="M938.5,-705C949.62,-705 945.52,-687.7 937.5,-680 921.36,-664.49 756.1,-670.14 736,-680 693.62,-700.79 713.38,-743.21 671,-764 543.62,-826.5 133.87,-863.28 32.5,-764 20.35,-752.1 13.38,-728.69 21.85,-719.66"/>
<polygon fill="black" stroke="black" points="23.39,-722.82 31.5,-716 20.91,-716.28 23.39,-722.82"/>
</g>
<!-- s139 -->
<g id="node3" class="node">
<title>s139</title>
<polygon fill="none" stroke="black" points="1018.5,-711 1018.5,-759 1291.5,-759 1291.5,-711 1018.5,-711"/>
<text text-anchor="start" x="1081.5" y="-745.8" font-family="Times,serif" font-weight="bold" font-size="14.00">MeshcatVisualizer</text>
<text text-anchor="start" x="1021.5" y="-731.8" font-family="Times,serif" font-size="14.00">name=meshcat_visualizer(visualizer)</text>
<text text-anchor="start" x="1073.5" y="-717.8" font-family="Times,serif" font-size="14.00">path=/drake/visualizer</text>
<polygon fill="none" stroke="black" points="1018.5,-690 1018.5,-711 1200.5,-711 1200.5,-690 1018.5,-690"/>
<text text-anchor="start" x="1063.5" y="-696.8" font-family="Times,serif" font-size="14.00">query_object</text>
<polyline fill="none" stroke="grey" points="1200.5,-690 1291.5,-690 1291.5,-711 "/>
</g>
<!-- s3&#45;&gt;s139 -->
<g id="edge13" class="edge">
<title>s3:e&#45;&gt;s139:w</title>
<path fill="none" stroke="black" d="M938.5,-705C969.97,-705 980.2,-701 1007.19,-700.16"/>
<polygon fill="black" stroke="black" points="1007.55,-703.65 1017.5,-700 1007.45,-696.65 1007.55,-703.65"/>
</g>
<!-- meshcat_in -->
<g id="node4" class="node">
<title>meshcat_in</title>
<ellipse fill="none" stroke="magenta" cx="1385.05" cy="-725" rx="50.09" ry="18"/>
<text text-anchor="middle" x="1385.05" y="-721.3" font-family="Times,serif" font-size="14.00">Meshcat</text>
</g>
<!-- s139&#45;&gt;meshcat_in -->
<g id="edge1" class="edge">
<title>s139:e&#45;&gt;meshcat_in</title>
<path fill="none" stroke="magenta" stroke-dasharray="5,2" d="M1299,-725C1307.19,-725 1315.82,-725 1324.32,-725"/>
<polygon fill="magenta" stroke="magenta" points="1324.58,-728.5 1334.58,-725 1324.58,-721.5 1324.58,-728.5"/>
</g>
<!-- s140 -->
<g id="node5" class="node">
<title>s140</title>
<polygon fill="none" stroke="black" points="260.5,-49 260.5,-70 435.5,-70 435.5,-49 260.5,-49"/>
<text text-anchor="start" x="263.5" y="-56.8" font-family="Times,serif" font-weight="bold" font-size="14.00">Traj.FlatnessInverter</text>
<polyline fill="none" stroke="grey" points="260.5,-49 260.5,-28 290.5,-28 "/>
<polygon fill="none" stroke="black" points="290.5,-28 290.5,-49 435.5,-49 435.5,-28 290.5,-28"/>
<text text-anchor="start" x="306" y="-34.8" font-family="Times,serif" font-size="14.00">drone.state_des</text>
</g>
<!-- s140&#45;&gt;s143 -->
<g id="edge12" class="edge">
<title>s140:e&#45;&gt;s143:w</title>
<path fill="none" stroke="black" d="M436.5,-38C542.62,-38 599.82,-4.28 671,-83 705.16,-120.78 665.75,-515.75 705.46,-564.97"/>
<polygon fill="black" stroke="black" points="704.06,-568.2 714.5,-570 707.46,-562.08 704.06,-568.2"/>
</g>
<!-- s141&#45;&gt;s142 -->
<g id="edge9" class="edge">
<title>s141:e&#45;&gt;s142:w</title>
<path fill="none" stroke="black" d="M948.5,-169C994.01,-169 1003.23,-198.26 1043.49,-202.49"/>
<polygon fill="black" stroke="black" points="1043.34,-205.99 1053.5,-203 1043.69,-199 1043.34,-205.99"/>
</g>
<!-- s142&#45;&gt;s2 -->
<g id="edge6" class="edge">
<title>s142:e&#45;&gt;s2:w</title>
<path fill="none" stroke="black" d="M1255.5,-214C1266.62,-214 1262.52,-196.7 1254.5,-189 1187.84,-124.95 1131.41,-152.43 1046.5,-189 945.65,-232.43 755.88,-449.68 707,-548 663.68,-635.15 745.26,-701.09 671,-764 616.87,-809.86 82.75,-814.08 32.5,-764 11.01,-742.58 0.2,-511.64 23.56,-470.31"/>
<polygon fill="black" stroke="black" points="25.85,-472.96 31.5,-464 21.49,-467.48 25.85,-472.96"/>
</g>
<!-- s143&#45;&gt;s2 -->
<g id="edge5" class="edge">
<title>s143:e&#45;&gt;s2:w</title>
<path fill="none" stroke="black" d="M967.5,-591C982.84,-591 977.5,-567.19 966.5,-556.5 883.77,-476.14 795.25,-482.24 707,-556.5 635.38,-616.76 742.62,-703.74 671,-764 616.72,-809.68 82.89,-813.94 32.5,-764 17.51,-749.15 9.38,-678.47 22.79,-658.35"/>
<polygon fill="black" stroke="black" points="24.81,-661.22 31.5,-653 21.15,-655.26 24.81,-661.22"/>
</g>
</g>
</svg>
