<?xml version="1.0" encoding="UTF-8" standalone="no"?>
<!DOCTYPE svg PUBLIC "-//W3C//DTD SVG 1.1//EN"
 "http://www.w3.org/Graphics/SVG/1.1/DTD/svg11.dtd">
<!-- Generated by graphviz version 2.43.0 (0)
 -->
<!-- Title: _224 Pages: 1 -->
<svg width="1686pt" height="827pt"
 viewBox="0.00 0.00 1686.09 827.00" xmlns="http://www.w3.org/2000/svg" xmlns:xlink="http://www.w3.org/1999/xlink">
<g id="graph0" class="graph" transform="scale(1 1) rotate(0) translate(4 823)">
<title>_224</title>
<polygon fill="white" stroke="transparent" points="-4,4 -4,-823 1682.09,-823 1682.09,4 -4,4"/>
<g id="clust1" class="cluster">
<title>cluster224diagram</title>
<polygon fill="none" stroke="black" points="8,-8 8,-811 1670.09,-811 1670.09,-8 8,-8"/>
<text text-anchor="start" x="805.05" y="-792.3" font-family="Times,serif" font-weight="bold" font-size="14.00">Diagram</text>
</g>
<g id="clust2" class="cluster">
<title>cluster224subsystems</title>
<polygon fill="none" stroke="white" points="16,-16 16,-772 1662.09,-772 1662.09,-16 16,-16"/>
</g>
<!-- s2 -->
<g id="node1" class="node">
<title>s2</title>
<polygon fill="none" stroke="black" points="263.5,-726 263.5,-760 894.5,-760 894.5,-726 263.5,-726"/>
<text text-anchor="start" x="517.5" y="-746.8" font-family="Times,serif" font-weight="bold" font-size="14.00">MultibodyPlant</text>
<text text-anchor="start" x="535" y="-732.8" font-family="Times,serif" font-size="14.00">name=plant</text>
<polygon fill="none" stroke="black" points="263.5,-705 263.5,-726 530.5,-726 530.5,-705 263.5,-705"/>
<text text-anchor="start" x="338.5" y="-711.8" font-family="Times,serif" font-size="14.00">geometry_query</text>
<polygon fill="none" stroke="black" points="530.5,-705 530.5,-726 894.5,-726 894.5,-705 530.5,-705"/>
<text text-anchor="start" x="658" y="-711.8" font-family="Times,serif" font-size="14.00">geometry_pose</text>
<polygon fill="none" stroke="black" points="263.5,-684 263.5,-705 530.5,-705 530.5,-684 263.5,-684"/>
<text text-anchor="start" x="363.5" y="-690.8" font-family="Times,serif" font-size="14.00">actuation</text>
<polygon fill="none" stroke="black" points="530.5,-684 530.5,-705 894.5,-705 894.5,-684 530.5,-684"/>
<text text-anchor="start" x="600.5" y="-690.8" font-family="Times,serif" font-size="14.00">deformable_body_configuration</text>
<polygon fill="none" stroke="black" points="263.5,-663 263.5,-684 530.5,-684 530.5,-663 263.5,-663"/>
<text text-anchor="start" x="304" y="-669.8" font-family="Times,serif" font-size="14.00">applied_generalized_force</text>
<polygon fill="none" stroke="black" points="530.5,-663 530.5,-684 894.5,-684 894.5,-663 530.5,-663"/>
<text text-anchor="start" x="694" y="-669.8" font-family="Times,serif" font-size="14.00">state</text>
<polygon fill="none" stroke="black" points="263.5,-642 263.5,-663 530.5,-663 530.5,-642 263.5,-642"/>
<text text-anchor="start" x="321.5" y="-648.8" font-family="Times,serif" font-size="14.00">applied_spatial_force</text>
<polygon fill="none" stroke="black" points="530.5,-642 530.5,-663 894.5,-663 894.5,-642 530.5,-642"/>
<text text-anchor="start" x="671.5" y="-648.8" font-family="Times,serif" font-size="14.00">body_poses</text>
<polygon fill="none" stroke="black" points="263.5,-621 263.5,-642 530.5,-642 530.5,-621 263.5,-621"/>
<text text-anchor="start" x="286.5" y="-627.8" font-family="Times,serif" font-size="14.00" fill="grey">WorldModelInstance_actuation</text>
<polygon fill="none" stroke="black" points="530.5,-621 530.5,-642 894.5,-642 894.5,-621 530.5,-621"/>
<text text-anchor="start" x="630.5" y="-627.8" font-family="Times,serif" font-size="14.00">body_spatial_velocities</text>
<polygon fill="none" stroke="black" points="263.5,-600 263.5,-621 530.5,-621 530.5,-600 263.5,-600"/>
<text text-anchor="start" x="272" y="-606.8" font-family="Times,serif" font-size="14.00" fill="grey">WorldModelInstance_desired_state</text>
<polygon fill="none" stroke="black" points="530.5,-600 530.5,-621 894.5,-621 894.5,-600 530.5,-600"/>
<text text-anchor="start" x="617" y="-606.8" font-family="Times,serif" font-size="14.00">body_spatial_accelerations</text>
<polygon fill="none" stroke="black" points="263.5,-579 263.5,-600 530.5,-600 530.5,-579 263.5,-579"/>
<text text-anchor="start" x="281" y="-585.8" font-family="Times,serif" font-size="14.00" fill="grey">DefaultModelInstance_actuation</text>
<polygon fill="none" stroke="black" points="530.5,-579 530.5,-600 894.5,-600 894.5,-579 530.5,-579"/>
<text text-anchor="start" x="623.5" y="-585.8" font-family="Times,serif" font-size="14.00">generalized_acceleration</text>
<polygon fill="none" stroke="black" points="263.5,-558 263.5,-579 530.5,-579 530.5,-558 263.5,-558"/>
<text text-anchor="start" x="266.5" y="-564.8" font-family="Times,serif" font-size="14.00" fill="grey">DefaultModelInstance_desired_state</text>
<polygon fill="none" stroke="black" points="530.5,-558 530.5,-579 894.5,-579 894.5,-558 530.5,-558"/>
<text text-anchor="start" x="664" y="-564.8" font-family="Times,serif" font-size="14.00">net_actuation</text>
<polygon fill="none" stroke="black" points="263.5,-537 263.5,-558 530.5,-558 530.5,-537 263.5,-537"/>
<text text-anchor="start" x="327" y="-543.8" font-family="Times,serif" font-size="14.00" fill="grey">table_top_actuation</text>
<polygon fill="none" stroke="black" points="530.5,-537 530.5,-558 894.5,-558 894.5,-537 530.5,-537"/>
<text text-anchor="start" x="658" y="-543.8" font-family="Times,serif" font-size="14.00">reaction_forces</text>
<polygon fill="none" stroke="black" points="263.5,-516 263.5,-537 530.5,-537 530.5,-516 263.5,-516"/>
<text text-anchor="start" x="312.5" y="-522.8" font-family="Times,serif" font-size="14.00" fill="grey">table_top_desired_state</text>
<polygon fill="none" stroke="black" points="530.5,-516 530.5,-537 894.5,-537 894.5,-516 530.5,-516"/>
<text text-anchor="start" x="658" y="-522.8" font-family="Times,serif" font-size="14.00">contact_results</text>
<polygon fill="none" stroke="black" points="263.5,-495 263.5,-516 530.5,-516 530.5,-495 263.5,-495"/>
<text text-anchor="start" x="323.5" y="-501.8" font-family="Times,serif" font-size="14.00" fill="grey">sugar_box_actuation</text>
<polygon fill="none" stroke="black" points="530.5,-495 530.5,-516 894.5,-516 894.5,-495 530.5,-495"/>
<text text-anchor="start" x="617.5" y="-501.8" font-family="Times,serif" font-size="14.00" fill="grey">WorldModelInstance_state</text>
<polygon fill="none" stroke="black" points="263.5,-474 263.5,-495 530.5,-495 530.5,-474 263.5,-474"/>
<text text-anchor="start" x="309" y="-480.8" font-family="Times,serif" font-size="14.00" fill="grey">sugar_box_desired_state</text>
<polygon fill="none" stroke="black" points="530.5,-474 530.5,-495 894.5,-495 894.5,-474 530.5,-474"/>
<text text-anchor="start" x="547" y="-480.8" font-family="Times,serif" font-size="14.00" fill="grey">WorldModelInstance_generalized_acceleration</text>
<polygon fill="none" stroke="black" points="263.5,-453 263.5,-474 530.5,-474 530.5,-453 263.5,-453"/>
<text text-anchor="start" x="339.5" y="-459.8" font-family="Times,serif" font-size="14.00">drone_actuation</text>
<polygon fill="none" stroke="black" points="530.5,-453 530.5,-474 894.5,-474 894.5,-453 530.5,-453"/>
<text text-anchor="start" x="539" y="-459.8" font-family="Times,serif" font-size="14.00" fill="grey">WorldModelInstance_generalized_contact_forces</text>
<polygon fill="none" stroke="black" points="263.5,-432 263.5,-453 530.5,-453 530.5,-432 263.5,-432"/>
<text text-anchor="start" x="324.5" y="-438.8" font-family="Times,serif" font-size="14.00" fill="grey">drone_desired_state</text>
<polygon fill="none" stroke="black" points="530.5,-432 530.5,-453 894.5,-453 894.5,-432 530.5,-432"/>
<text text-anchor="start" x="587" y="-438.8" font-family="Times,serif" font-size="14.00" fill="grey">WorldModelInstance_net_actuation</text>
<polyline fill="none" stroke="grey" points="263.5,-432 263.5,-96 530.5,-96 "/>
<polygon fill="none" stroke="black" points="530.5,-411 530.5,-432 894.5,-432 894.5,-411 530.5,-411"/>
<text text-anchor="start" x="612" y="-417.8" font-family="Times,serif" font-size="14.00" fill="grey">DefaultModelInstance_state</text>
<polygon fill="none" stroke="black" points="530.5,-390 530.5,-411 894.5,-411 894.5,-390 530.5,-390"/>
<text text-anchor="start" x="541.5" y="-396.8" font-family="Times,serif" font-size="14.00" fill="grey">DefaultModelInstance_generalized_acceleration</text>
<polygon fill="none" stroke="black" points="530.5,-369 530.5,-390 894.5,-390 894.5,-369 530.5,-369"/>
<text text-anchor="start" x="533.5" y="-375.8" font-family="Times,serif" font-size="14.00" fill="grey">DefaultModelInstance_generalized_contact_forces</text>
<polygon fill="none" stroke="black" points="530.5,-348 530.5,-369 894.5,-369 894.5,-348 530.5,-348"/>
<text text-anchor="start" x="581.5" y="-354.8" font-family="Times,serif" font-size="14.00" fill="grey">DefaultModelInstance_net_actuation</text>
<polygon fill="none" stroke="black" points="530.5,-327 530.5,-348 894.5,-348 894.5,-327 530.5,-327"/>
<text text-anchor="start" x="658" y="-333.8" font-family="Times,serif" font-size="14.00" fill="grey">table_top_state</text>
<polygon fill="none" stroke="black" points="530.5,-306 530.5,-327 894.5,-327 894.5,-306 530.5,-306"/>
<text text-anchor="start" x="587.5" y="-312.8" font-family="Times,serif" font-size="14.00" fill="grey">table_top_generalized_acceleration</text>
<polygon fill="none" stroke="black" points="530.5,-285 530.5,-306 894.5,-306 894.5,-285 530.5,-285"/>
<text text-anchor="start" x="579.5" y="-291.8" font-family="Times,serif" font-size="14.00" fill="grey">table_top_generalized_contact_forces</text>
<polygon fill="none" stroke="black" points="530.5,-264 530.5,-285 894.5,-285 894.5,-264 530.5,-264"/>
<text text-anchor="start" x="627.5" y="-270.8" font-family="Times,serif" font-size="14.00" fill="grey">table_top_net_actuation</text>
<polygon fill="none" stroke="black" points="530.5,-243 530.5,-264 894.5,-264 894.5,-243 530.5,-243"/>
<text text-anchor="start" x="654.5" y="-249.8" font-family="Times,serif" font-size="14.00">sugar_box_state</text>
<polygon fill="none" stroke="black" points="530.5,-222 530.5,-243 894.5,-243 894.5,-222 530.5,-222"/>
<text text-anchor="start" x="584" y="-228.8" font-family="Times,serif" font-size="14.00">sugar_box_generalized_acceleration</text>
<polygon fill="none" stroke="black" points="530.5,-201 530.5,-222 894.5,-222 894.5,-201 530.5,-201"/>
<text text-anchor="start" x="576" y="-207.8" font-family="Times,serif" font-size="14.00">sugar_box_generalized_contact_forces</text>
<polygon fill="none" stroke="black" points="530.5,-180 530.5,-201 894.5,-201 894.5,-180 530.5,-180"/>
<text text-anchor="start" x="624" y="-186.8" font-family="Times,serif" font-size="14.00" fill="grey">sugar_box_net_actuation</text>
<polygon fill="none" stroke="black" points="530.5,-159 530.5,-180 894.5,-180 894.5,-159 530.5,-159"/>
<text text-anchor="start" x="670" y="-165.8" font-family="Times,serif" font-size="14.00">drone_state</text>
<polygon fill="none" stroke="black" points="530.5,-138 530.5,-159 894.5,-159 894.5,-138 530.5,-138"/>
<text text-anchor="start" x="599.5" y="-144.8" font-family="Times,serif" font-size="14.00">drone_generalized_acceleration</text>
<polygon fill="none" stroke="black" points="530.5,-117 530.5,-138 894.5,-138 894.5,-117 530.5,-117"/>
<text text-anchor="start" x="592" y="-123.8" font-family="Times,serif" font-size="14.00">drone_generalized_contact_forces</text>
<polygon fill="none" stroke="black" points="530.5,-96 530.5,-117 894.5,-117 894.5,-96 530.5,-96"/>
<text text-anchor="start" x="640" y="-102.8" font-family="Times,serif" font-size="14.00">drone_net_actuation</text>
</g>
<!-- s3 -->
<g id="node2" class="node">
<title>s3</title>
<polygon fill="none" stroke="black" points="946.5,-726 946.5,-760 1185.5,-760 1185.5,-726 946.5,-726"/>
<text text-anchor="start" x="1018" y="-746.8" font-family="Times,serif" font-weight="bold" font-size="14.00">SceneGraph</text>
<text text-anchor="start" x="995.5" y="-732.8" font-family="Times,serif" font-size="14.00">name=scene_graph</text>
<polygon fill="none" stroke="black" points="946.5,-705 946.5,-726 1137.5,-726 1137.5,-705 946.5,-705"/>
<text text-anchor="start" x="1003.5" y="-711.8" font-family="Times,serif" font-size="14.00">plant_pose</text>
<polygon fill="none" stroke="black" points="1137.5,-642 1137.5,-726 1185.5,-726 1185.5,-642 1137.5,-642"/>
<text text-anchor="start" x="1140.5" y="-680.3" font-family="Times,serif" font-size="14.00">query</text>
<polygon fill="none" stroke="black" points="946.5,-684 946.5,-705 1137.5,-705 1137.5,-684 946.5,-684"/>
<text text-anchor="start" x="972.5" y="-690.8" font-family="Times,serif" font-size="14.00">plant_configuration</text>
<polygon fill="none" stroke="black" points="946.5,-663 946.5,-684 1137.5,-684 1137.5,-663 946.5,-663"/>
<text text-anchor="start" x="980" y="-669.8" font-family="Times,serif" font-size="14.00">Source_128_pose</text>
<polygon fill="none" stroke="black" points="946.5,-642 946.5,-663 1137.5,-663 1137.5,-642 946.5,-642"/>
<text text-anchor="start" x="949.5" y="-648.8" font-family="Times,serif" font-size="14.00">Source_128_configuration</text>
</g>
<!-- s2&#45;&gt;s3 -->
<g id="edge2" class="edge">
<title>s2:e&#45;&gt;s3:w</title>
<path fill="none" stroke="black" d="M895.5,-716C913.9,-716 920.88,-716 935.35,-716"/>
<polygon fill="black" stroke="black" points="935.5,-719.5 945.5,-716 935.5,-712.5 935.5,-719.5"/>
</g>
<!-- s2&#45;&gt;s3 -->
<g id="edge3" class="edge">
<title>s2:e&#45;&gt;s3:w</title>
<path fill="none" stroke="black" d="M895.5,-695C913.91,-695 920.87,-694.31 935.35,-694.08"/>
<polygon fill="black" stroke="black" points="935.53,-697.58 945.5,-694 935.47,-690.58 935.53,-697.58"/>
</g>
<!-- s3&#45;&gt;s2 -->
<g id="edge5" class="edge">
<title>s3:e&#45;&gt;s2:w</title>
<path fill="none" stroke="black" d="M1186.5,-684C1227.92,-684 1243.41,-407.63 938,-638 891.5,-673.07 948.5,-728.93 902,-764 845.36,-806.72 314.19,-813.64 263.5,-764 251.35,-752.1 244.38,-728.69 252.85,-719.66"/>
<polygon fill="black" stroke="black" points="254.39,-722.82 262.5,-716 251.91,-716.28 254.39,-722.82"/>
</g>
<!-- s124 -->
<g id="node3" class="node">
<title>s124</title>
<polygon fill="none" stroke="black" points="1237.5,-695 1237.5,-743 1510.5,-743 1510.5,-695 1237.5,-695"/>
<text text-anchor="start" x="1300.5" y="-729.8" font-family="Times,serif" font-weight="bold" font-size="14.00">MeshcatVisualizer</text>
<text text-anchor="start" x="1240.5" y="-715.8" font-family="Times,serif" font-size="14.00">name=meshcat_visualizer(visualizer)</text>
<text text-anchor="start" x="1292.5" y="-701.8" font-family="Times,serif" font-size="14.00">path=/drake/visualizer</text>
<polygon fill="none" stroke="black" points="1237.5,-674 1237.5,-695 1419.5,-695 1419.5,-674 1237.5,-674"/>
<text text-anchor="start" x="1282.5" y="-680.8" font-family="Times,serif" font-size="14.00">query_object</text>
<polyline fill="none" stroke="grey" points="1419.5,-674 1510.5,-674 1510.5,-695 "/>
</g>
<!-- s3&#45;&gt;s124 -->
<g id="edge6" class="edge">
<title>s3:e&#45;&gt;s124:w</title>
<path fill="none" stroke="black" d="M1186.5,-684C1204.9,-684 1211.88,-684 1226.35,-684"/>
<polygon fill="black" stroke="black" points="1226.5,-687.5 1236.5,-684 1226.5,-680.5 1226.5,-687.5"/>
</g>
<!-- meshcat_in -->
<g id="node4" class="node">
<title>meshcat_in</title>
<ellipse fill="none" stroke="magenta" cx="1604.05" cy="-709" rx="50.09" ry="18"/>
<text text-anchor="middle" x="1604.05" y="-705.3" font-family="Times,serif" font-size="14.00">Meshcat</text>
</g>
<!-- s124&#45;&gt;meshcat_in -->
<g id="edge1" class="edge">
<title>s124:e&#45;&gt;meshcat_in</title>
<path fill="none" stroke="magenta" stroke-dasharray="5,2" d="M1518,-709C1526.19,-709 1534.82,-709 1543.32,-709"/>
<polygon fill="magenta" stroke="magenta" points="1543.58,-712.5 1553.58,-709 1543.58,-705.5 1543.58,-712.5"/>
</g>
<!-- s125 -->
<g id="node5" class="node">
<title>s125</title>
<polygon fill="none" stroke="black" points="32.5,-49 32.5,-70 211.5,-70 211.5,-49 32.5,-49"/>
<text text-anchor="start" x="35.5" y="-56.8" font-family="Times,serif" font-weight="bold" font-size="14.00">utils.FlatnessInverter</text>
<polyline fill="none" stroke="grey" points="32.5,-49 32.5,-28 103.5,-28 "/>
<polygon fill="none" stroke="black" points="103.5,-28 103.5,-49 211.5,-49 211.5,-28 103.5,-28"/>
<text text-anchor="start" x="139" y="-34.8" font-family="Times,serif" font-size="14.00">state</text>
</g>
<!-- s126 -->
<g id="node6" class="node">
<title>s126</title>
<polygon fill="none" stroke="black" points="459.5,-49 459.5,-70 698.5,-70 698.5,-49 459.5,-49"/>
<text text-anchor="start" x="518" y="-56.8" font-family="Times,serif" font-weight="bold" font-size="14.00">utils.Quadrotor</text>
<polygon fill="none" stroke="black" points="459.5,-28 459.5,-49 580.5,-49 580.5,-28 459.5,-28"/>
<text text-anchor="start" x="462.5" y="-34.8" font-family="Times,serif" font-size="14.00">quadrotor_state</text>
<polygon fill="none" stroke="black" points="580.5,-28 580.5,-49 698.5,-49 698.5,-28 580.5,-28"/>
<text text-anchor="start" x="583.5" y="-34.8" font-family="Times,serif" font-size="14.00">quadrotor_pose</text>
</g>
<!-- s125&#45;&gt;s126 -->
<g id="edge7" class="edge">
<title>s125:e&#45;&gt;s126:w</title>
<path fill="none" stroke="black" d="M212.5,-38C318.42,-38 347.38,-38 448.49,-38"/>
<polygon fill="black" stroke="black" points="448.5,-41.5 458.5,-38 448.5,-34.5 448.5,-41.5"/>
</g>
<!-- s126&#45;&gt;s3 -->
<g id="edge4" class="edge">
<title>s126:e&#45;&gt;s3:w</title>
<path fill="none" stroke="black" d="M699.5,-38C791.7,-38 841.7,-13.25 902,-83 942.72,-130.1 886.34,-617.38 936.16,-668.64"/>
<polygon fill="black" stroke="black" points="934.96,-671.95 945.5,-673 937.92,-665.6 934.96,-671.95"/>
</g>
</g>
</svg>
