<?xml version="1.0" encoding="UTF-8" standalone="no"?>
<!DOCTYPE svg PUBLIC "-//W3C//DTD SVG 1.1//EN"
 "http://www.w3.org/Graphics/SVG/1.1/DTD/svg11.dtd">
<!-- Generated by graphviz version 2.43.0 (0)
 -->
<!-- Title: _144 Pages: 1 -->
<svg width="1686pt" height="835pt"
 viewBox="0.00 0.00 1686.09 835.08" xmlns="http://www.w3.org/2000/svg" xmlns:xlink="http://www.w3.org/1999/xlink">
<g id="graph0" class="graph" transform="scale(1 1) rotate(0) translate(4 831.08)">
<title>_144</title>
<polygon fill="white" stroke="transparent" points="-4,4 -4,-831.08 1682.09,-831.08 1682.09,4 -4,4"/>
<g id="clust1" class="cluster">
<title>cluster144diagram</title>
<polygon fill="none" stroke="black" points="8,-8 8,-811 1670.09,-811 1670.09,-8 8,-8"/>
<text text-anchor="start" x="805.05" y="-792.3" font-family="Times,serif" font-weight="bold" font-size="14.00">Diagram</text>
</g>
<g id="clust2" class="cluster">
<title>cluster144subsystems</title>
<polygon fill="none" stroke="white" points="16,-16 16,-772 1662.09,-772 1662.09,-16 16,-16"/>
</g>
<!-- s2 -->
<g id="node1" class="node">
<title>s2</title>
<polygon fill="none" stroke="black" points="266.5,-726 266.5,-760 897.5,-760 897.5,-726 266.5,-726"/>
<text text-anchor="start" x="520.5" y="-746.8" font-family="Times,serif" font-weight="bold" font-size="14.00">MultibodyPlant</text>
<text text-anchor="start" x="538" y="-732.8" font-family="Times,serif" font-size="14.00">name=plant</text>
<polygon fill="none" stroke="black" points="266.5,-705 266.5,-726 533.5,-726 533.5,-705 266.5,-705"/>
<text text-anchor="start" x="341.5" y="-711.8" font-family="Times,serif" font-size="14.00">geometry_query</text>
<polygon fill="none" stroke="black" points="533.5,-705 533.5,-726 897.5,-726 897.5,-705 533.5,-705"/>
<text text-anchor="start" x="661" y="-711.8" font-family="Times,serif" font-size="14.00">geometry_pose</text>
<polygon fill="none" stroke="black" points="266.5,-684 266.5,-705 533.5,-705 533.5,-684 266.5,-684"/>
<text text-anchor="start" x="366.5" y="-690.8" font-family="Times,serif" font-size="14.00">actuation</text>
<polygon fill="none" stroke="black" points="533.5,-684 533.5,-705 897.5,-705 897.5,-684 533.5,-684"/>
<text text-anchor="start" x="603.5" y="-690.8" font-family="Times,serif" font-size="14.00">deformable_body_configuration</text>
<polygon fill="none" stroke="black" points="266.5,-663 266.5,-684 533.5,-684 533.5,-663 266.5,-663"/>
<text text-anchor="start" x="307" y="-669.8" font-family="Times,serif" font-size="14.00">applied_generalized_force</text>
<polygon fill="none" stroke="black" points="533.5,-663 533.5,-684 897.5,-684 897.5,-663 533.5,-663"/>
<text text-anchor="start" x="697" y="-669.8" font-family="Times,serif" font-size="14.00">state</text>
<polygon fill="none" stroke="black" points="266.5,-642 266.5,-663 533.5,-663 533.5,-642 266.5,-642"/>
<text text-anchor="start" x="324.5" y="-648.8" font-family="Times,serif" font-size="14.00">applied_spatial_force</text>
<polygon fill="none" stroke="black" points="533.5,-642 533.5,-663 897.5,-663 897.5,-642 533.5,-642"/>
<text text-anchor="start" x="674.5" y="-648.8" font-family="Times,serif" font-size="14.00">body_poses</text>
<polygon fill="none" stroke="black" points="266.5,-621 266.5,-642 533.5,-642 533.5,-621 266.5,-621"/>
<text text-anchor="start" x="289.5" y="-627.8" font-family="Times,serif" font-size="14.00" fill="grey">WorldModelInstance_actuation</text>
<polygon fill="none" stroke="black" points="533.5,-621 533.5,-642 897.5,-642 897.5,-621 533.5,-621"/>
<text text-anchor="start" x="633.5" y="-627.8" font-family="Times,serif" font-size="14.00">body_spatial_velocities</text>
<polygon fill="none" stroke="black" points="266.5,-600 266.5,-621 533.5,-621 533.5,-600 266.5,-600"/>
<text text-anchor="start" x="275" y="-606.8" font-family="Times,serif" font-size="14.00" fill="grey">WorldModelInstance_desired_state</text>
<polygon fill="none" stroke="black" points="533.5,-600 533.5,-621 897.5,-621 897.5,-600 533.5,-600"/>
<text text-anchor="start" x="620" y="-606.8" font-family="Times,serif" font-size="14.00">body_spatial_accelerations</text>
<polygon fill="none" stroke="black" points="266.5,-579 266.5,-600 533.5,-600 533.5,-579 266.5,-579"/>
<text text-anchor="start" x="284" y="-585.8" font-family="Times,serif" font-size="14.00" fill="grey">DefaultModelInstance_actuation</text>
<polygon fill="none" stroke="black" points="533.5,-579 533.5,-600 897.5,-600 897.5,-579 533.5,-579"/>
<text text-anchor="start" x="626.5" y="-585.8" font-family="Times,serif" font-size="14.00">generalized_acceleration</text>
<polygon fill="none" stroke="black" points="266.5,-558 266.5,-579 533.5,-579 533.5,-558 266.5,-558"/>
<text text-anchor="start" x="269.5" y="-564.8" font-family="Times,serif" font-size="14.00" fill="grey">DefaultModelInstance_desired_state</text>
<polygon fill="none" stroke="black" points="533.5,-558 533.5,-579 897.5,-579 897.5,-558 533.5,-558"/>
<text text-anchor="start" x="667" y="-564.8" font-family="Times,serif" font-size="14.00">net_actuation</text>
<polygon fill="none" stroke="black" points="266.5,-537 266.5,-558 533.5,-558 533.5,-537 266.5,-537"/>
<text text-anchor="start" x="330" y="-543.8" font-family="Times,serif" font-size="14.00" fill="grey">table_top_actuation</text>
<polygon fill="none" stroke="black" points="533.5,-537 533.5,-558 897.5,-558 897.5,-537 533.5,-537"/>
<text text-anchor="start" x="661" y="-543.8" font-family="Times,serif" font-size="14.00">reaction_forces</text>
<polygon fill="none" stroke="black" points="266.5,-516 266.5,-537 533.5,-537 533.5,-516 266.5,-516"/>
<text text-anchor="start" x="315.5" y="-522.8" font-family="Times,serif" font-size="14.00" fill="grey">table_top_desired_state</text>
<polygon fill="none" stroke="black" points="533.5,-516 533.5,-537 897.5,-537 897.5,-516 533.5,-516"/>
<text text-anchor="start" x="661" y="-522.8" font-family="Times,serif" font-size="14.00">contact_results</text>
<polygon fill="none" stroke="black" points="266.5,-495 266.5,-516 533.5,-516 533.5,-495 266.5,-495"/>
<text text-anchor="start" x="326.5" y="-501.8" font-family="Times,serif" font-size="14.00" fill="grey">sugar_box_actuation</text>
<polygon fill="none" stroke="black" points="533.5,-495 533.5,-516 897.5,-516 897.5,-495 533.5,-495"/>
<text text-anchor="start" x="620.5" y="-501.8" font-family="Times,serif" font-size="14.00" fill="grey">WorldModelInstance_state</text>
<polygon fill="none" stroke="black" points="266.5,-474 266.5,-495 533.5,-495 533.5,-474 266.5,-474"/>
<text text-anchor="start" x="312" y="-480.8" font-family="Times,serif" font-size="14.00" fill="grey">sugar_box_desired_state</text>
<polygon fill="none" stroke="black" points="533.5,-474 533.5,-495 897.5,-495 897.5,-474 533.5,-474"/>
<text text-anchor="start" x="550" y="-480.8" font-family="Times,serif" font-size="14.00" fill="grey">WorldModelInstance_generalized_acceleration</text>
<polygon fill="none" stroke="black" points="266.5,-453 266.5,-474 533.5,-474 533.5,-453 266.5,-453"/>
<text text-anchor="start" x="342.5" y="-459.8" font-family="Times,serif" font-size="14.00">drone_actuation</text>
<polygon fill="none" stroke="black" points="533.5,-453 533.5,-474 897.5,-474 897.5,-453 533.5,-453"/>
<text text-anchor="start" x="542" y="-459.8" font-family="Times,serif" font-size="14.00" fill="grey">WorldModelInstance_generalized_contact_forces</text>
<polygon fill="none" stroke="black" points="266.5,-432 266.5,-453 533.5,-453 533.5,-432 266.5,-432"/>
<text text-anchor="start" x="327.5" y="-438.8" font-family="Times,serif" font-size="14.00" fill="grey">drone_desired_state</text>
<polygon fill="none" stroke="black" points="533.5,-432 533.5,-453 897.5,-453 897.5,-432 533.5,-432"/>
<text text-anchor="start" x="590" y="-438.8" font-family="Times,serif" font-size="14.00" fill="grey">WorldModelInstance_net_actuation</text>
<polyline fill="none" stroke="grey" points="266.5,-432 266.5,-96 533.5,-96 "/>
<polygon fill="none" stroke="black" points="533.5,-411 533.5,-432 897.5,-432 897.5,-411 533.5,-411"/>
<text text-anchor="start" x="615" y="-417.8" font-family="Times,serif" font-size="14.00" fill="grey">DefaultModelInstance_state</text>
<polygon fill="none" stroke="black" points="533.5,-390 533.5,-411 897.5,-411 897.5,-390 533.5,-390"/>
<text text-anchor="start" x="544.5" y="-396.8" font-family="Times,serif" font-size="14.00" fill="grey">DefaultModelInstance_generalized_acceleration</text>
<polygon fill="none" stroke="black" points="533.5,-369 533.5,-390 897.5,-390 897.5,-369 533.5,-369"/>
<text text-anchor="start" x="536.5" y="-375.8" font-family="Times,serif" font-size="14.00" fill="grey">DefaultModelInstance_generalized_contact_forces</text>
<polygon fill="none" stroke="black" points="533.5,-348 533.5,-369 897.5,-369 897.5,-348 533.5,-348"/>
<text text-anchor="start" x="584.5" y="-354.8" font-family="Times,serif" font-size="14.00" fill="grey">DefaultModelInstance_net_actuation</text>
<polygon fill="none" stroke="black" points="533.5,-327 533.5,-348 897.5,-348 897.5,-327 533.5,-327"/>
<text text-anchor="start" x="661" y="-333.8" font-family="Times,serif" font-size="14.00" fill="grey">table_top_state</text>
<polygon fill="none" stroke="black" points="533.5,-306 533.5,-327 897.5,-327 897.5,-306 533.5,-306"/>
<text text-anchor="start" x="590.5" y="-312.8" font-family="Times,serif" font-size="14.00" fill="grey">table_top_generalized_acceleration</text>
<polygon fill="none" stroke="black" points="533.5,-285 533.5,-306 897.5,-306 897.5,-285 533.5,-285"/>
<text text-anchor="start" x="582.5" y="-291.8" font-family="Times,serif" font-size="14.00" fill="grey">table_top_generalized_contact_forces</text>
<polygon fill="none" stroke="black" points="533.5,-264 533.5,-285 897.5,-285 897.5,-264 533.5,-264"/>
<text text-anchor="start" x="630.5" y="-270.8" font-family="Times,serif" font-size="14.00" fill="grey">table_top_net_actuation</text>
<polygon fill="none" stroke="black" points="533.5,-243 533.5,-264 897.5,-264 897.5,-243 533.5,-243"/>
<text text-anchor="start" x="657.5" y="-249.8" font-family="Times,serif" font-size="14.00">sugar_box_state</text>
<polygon fill="none" stroke="black" points="533.5,-222 533.5,-243 897.5,-243 897.5,-222 533.5,-222"/>
<text text-anchor="start" x="587" y="-228.8" font-family="Times,serif" font-size="14.00">sugar_box_generalized_acceleration</text>
<polygon fill="none" stroke="black" points="533.5,-201 533.5,-222 897.5,-222 897.5,-201 533.5,-201"/>
<text text-anchor="start" x="579" y="-207.8" font-family="Times,serif" font-size="14.00">sugar_box_generalized_contact_forces</text>
<polygon fill="none" stroke="black" points="533.5,-180 533.5,-201 897.5,-201 897.5,-180 533.5,-180"/>
<text text-anchor="start" x="627" y="-186.8" font-family="Times,serif" font-size="14.00" fill="grey">sugar_box_net_actuation</text>
<polygon fill="none" stroke="black" points="533.5,-159 533.5,-180 897.5,-180 897.5,-159 533.5,-159"/>
<text text-anchor="start" x="673" y="-165.8" font-family="Times,serif" font-size="14.00">drone_state</text>
<polygon fill="none" stroke="black" points="533.5,-138 533.5,-159 897.5,-159 897.5,-138 533.5,-138"/>
<text text-anchor="start" x="602.5" y="-144.8" font-family="Times,serif" font-size="14.00">drone_generalized_acceleration</text>
<polygon fill="none" stroke="black" points="533.5,-117 533.5,-138 897.5,-138 897.5,-117 533.5,-117"/>
<text text-anchor="start" x="595" y="-123.8" font-family="Times,serif" font-size="14.00">drone_generalized_contact_forces</text>
<polygon fill="none" stroke="black" points="533.5,-96 533.5,-117 897.5,-117 897.5,-96 533.5,-96"/>
<text text-anchor="start" x="643" y="-102.8" font-family="Times,serif" font-size="14.00">drone_net_actuation</text>
</g>
<!-- s3 -->
<g id="node2" class="node">
<title>s3</title>
<polygon fill="none" stroke="black" points="971,-726 971,-760 1164,-760 1164,-726 971,-726"/>
<text text-anchor="start" x="1019.5" y="-746.8" font-family="Times,serif" font-weight="bold" font-size="14.00">SceneGraph</text>
<text text-anchor="start" x="997" y="-732.8" font-family="Times,serif" font-size="14.00">name=scene_graph</text>
<polygon fill="none" stroke="black" points="971,-705 971,-726 1116,-726 1116,-705 971,-705"/>
<text text-anchor="start" x="1005" y="-711.8" font-family="Times,serif" font-size="14.00">plant_pose</text>
<polygon fill="none" stroke="black" points="1116,-684 1116,-726 1164,-726 1164,-684 1116,-684"/>
<text text-anchor="start" x="1119" y="-701.3" font-family="Times,serif" font-size="14.00">query</text>
<polygon fill="none" stroke="black" points="971,-684 971,-705 1116,-705 1116,-684 971,-684"/>
<text text-anchor="start" x="974" y="-690.8" font-family="Times,serif" font-size="14.00">plant_configuration</text>
</g>
<!-- s2&#45;&gt;s3 -->
<g id="edge2" class="edge">
<title>s2:e&#45;&gt;s3:w</title>
<path fill="none" stroke="black" d="M898.5,-716C926.56,-716 936.03,-715.22 959.73,-715.04"/>
<polygon fill="black" stroke="black" points="960.01,-718.54 970,-715 959.99,-711.54 960.01,-718.54"/>
</g>
<!-- s2&#45;&gt;s3 -->
<g id="edge3" class="edge">
<title>s2:e&#45;&gt;s3:w</title>
<path fill="none" stroke="black" d="M898.5,-695C926.56,-695 936.03,-694.22 959.73,-694.04"/>
<polygon fill="black" stroke="black" points="960.01,-697.54 970,-694 959.99,-690.54 960.01,-697.54"/>
</g>
<!-- s142 -->
<g id="node7" class="node">
<title>s142</title>
<polygon fill="none" stroke="black" points="949,-623 949,-657 1185,-657 1185,-623 949,-623"/>
<text text-anchor="start" x="960" y="-643.8" font-family="Times,serif" font-weight="bold" font-size="14.00">utils.DroneRotorController</text>
<text text-anchor="start" x="983.5" y="-629.8" font-family="Times,serif" font-size="14.00">name=drone controller</text>
<polygon fill="none" stroke="black" points="949,-602 949,-623 1100,-623 1100,-602 949,-602"/>
<text text-anchor="start" x="953.5" y="-608.8" font-family="Times,serif" font-size="14.00">drone_pose_current</text>
<polygon fill="none" stroke="black" points="1100,-560 1100,-623 1185,-623 1185,-560 1100,-560"/>
<text text-anchor="start" x="1103" y="-587.8" font-family="Times,serif" font-size="14.00">rotor_force</text>
<polygon fill="none" stroke="black" points="949,-581 949,-602 1100,-602 1100,-581 949,-581"/>
<text text-anchor="start" x="959.5" y="-587.8" font-family="Times,serif" font-size="14.00">drone_vel_current</text>
<polygon fill="none" stroke="black" points="949,-560 949,-581 1100,-581 1100,-560 949,-560"/>
<text text-anchor="start" x="952" y="-566.8" font-family="Times,serif" font-size="14.00">drone_state_desired</text>
</g>
<!-- s2&#45;&gt;s142 -->
<g id="edge7" class="edge">
<title>s2:e&#45;&gt;s142:w</title>
<path fill="none" stroke="black" d="M898.5,-653C922.81,-653 921,-623.46 937.97,-615.15"/>
<polygon fill="black" stroke="black" points="938.96,-618.52 948,-613 937.49,-611.67 938.96,-618.52"/>
</g>
<!-- s2&#45;&gt;s142 -->
<g id="edge8" class="edge">
<title>s2:e&#45;&gt;s142:w</title>
<path fill="none" stroke="black" d="M898.5,-632C923.05,-632 920.86,-601.72 937.89,-593.2"/>
<polygon fill="black" stroke="black" points="938.98,-596.55 948,-591 937.48,-589.71 938.98,-596.55"/>
</g>
<!-- s3&#45;&gt;s2 -->
<g id="edge4" class="edge">
<title>s3:e&#45;&gt;s2:w</title>
<path fill="none" stroke="black" d="M1165,-705C1176.12,-705 1172.02,-687.7 1164,-680 1147.86,-664.49 982.3,-669.56 962.5,-680 922.48,-701.1 945.02,-742.9 905,-764 779.49,-830.18 367.87,-863.28 266.5,-764 254.35,-752.1 247.38,-728.69 255.85,-719.66"/>
<polygon fill="black" stroke="black" points="257.39,-722.82 265.5,-716 254.91,-716.28 257.39,-722.82"/>
</g>
<!-- s139 -->
<g id="node3" class="node">
<title>s139</title>
<polygon fill="none" stroke="black" points="1237.5,-711 1237.5,-759 1510.5,-759 1510.5,-711 1237.5,-711"/>
<text text-anchor="start" x="1300.5" y="-745.8" font-family="Times,serif" font-weight="bold" font-size="14.00">MeshcatVisualizer</text>
<text text-anchor="start" x="1240.5" y="-731.8" font-family="Times,serif" font-size="14.00">name=meshcat_visualizer(visualizer)</text>
<text text-anchor="start" x="1292.5" y="-717.8" font-family="Times,serif" font-size="14.00">path=/drake/visualizer</text>
<polygon fill="none" stroke="black" points="1237.5,-690 1237.5,-711 1419.5,-711 1419.5,-690 1237.5,-690"/>
<text text-anchor="start" x="1282.5" y="-696.8" font-family="Times,serif" font-size="14.00">query_object</text>
<polyline fill="none" stroke="grey" points="1419.5,-690 1510.5,-690 1510.5,-711 "/>
</g>
<!-- s3&#45;&gt;s139 -->
<g id="edge10" class="edge">
<title>s3:e&#45;&gt;s139:w</title>
<path fill="none" stroke="black" d="M1165,-705C1193.12,-705 1202.49,-701.1 1226.21,-700.19"/>
<polygon fill="black" stroke="black" points="1226.57,-703.68 1236.5,-700 1226.44,-696.69 1226.57,-703.68"/>
</g>
<!-- meshcat_in -->
<g id="node4" class="node">
<title>meshcat_in</title>
<ellipse fill="none" stroke="magenta" cx="1604.05" cy="-725" rx="50.09" ry="18"/>
<text text-anchor="middle" x="1604.05" y="-721.3" font-family="Times,serif" font-size="14.00">Meshcat</text>
</g>
<!-- s139&#45;&gt;meshcat_in -->
<g id="edge1" class="edge">
<title>s139:e&#45;&gt;meshcat_in</title>
<path fill="none" stroke="magenta" stroke-dasharray="5,2" d="M1518,-725C1526.19,-725 1534.82,-725 1543.32,-725"/>
<polygon fill="magenta" stroke="magenta" points="1543.58,-728.5 1553.58,-725 1543.58,-721.5 1543.58,-728.5"/>
</g>
<!-- s140 -->
<g id="node5" class="node">
<title>s140</title>
<polygon fill="none" stroke="black" points="492.5,-49 492.5,-70 671.5,-70 671.5,-49 492.5,-49"/>
<text text-anchor="start" x="495.5" y="-56.8" font-family="Times,serif" font-weight="bold" font-size="14.00">utils.FlatnessInverter</text>
<polyline fill="none" stroke="grey" points="492.5,-49 492.5,-28 563.5,-28 "/>
<polygon fill="none" stroke="black" points="563.5,-28 563.5,-49 671.5,-49 671.5,-28 563.5,-28"/>
<text text-anchor="start" x="599" y="-34.8" font-family="Times,serif" font-size="14.00">state</text>
</g>
<!-- s140&#45;&gt;s142 -->
<g id="edge9" class="edge">
<title>s140:e&#45;&gt;s142:w</title>
<path fill="none" stroke="black" d="M672.5,-38C777.75,-38 834.51,-4.84 905,-83 939.11,-120.82 899.31,-515.75 938.96,-564.97"/>
<polygon fill="black" stroke="black" points="937.56,-568.2 948,-570 940.96,-562.08 937.56,-568.2"/>
</g>
<!-- s141 -->
<g id="node6" class="node">
<title>s141</title>
<polygon fill="none" stroke="black" points="32,-475 32,-509 214,-509 214,-475 32,-475"/>
<text text-anchor="start" x="35" y="-495.8" font-family="Times,serif" font-weight="bold" font-size="14.00">utils.SimpleController</text>
<text text-anchor="start" x="44.5" y="-481.8" font-family="Times,serif" font-size="14.00">name=arm_controller</text>
<polyline fill="none" stroke="grey" points="32,-475 32,-454 118,-454 "/>
<polygon fill="none" stroke="black" points="118,-454 118,-475 214,-475 214,-454 118,-454"/>
<text text-anchor="start" x="161.5" y="-460.8" font-family="Times,serif" font-size="14.00">y</text>
</g>
<!-- s141&#45;&gt;s2 -->
<g id="edge6" class="edge">
<title>s141:e&#45;&gt;s2:w</title>
<path fill="none" stroke="black" d="M215,-464C233.59,-464 240.63,-464 255.25,-464"/>
<polygon fill="black" stroke="black" points="255.5,-467.5 265.5,-464 255.5,-460.5 255.5,-467.5"/>
</g>
<!-- s142&#45;&gt;s2 -->
<g id="edge5" class="edge">
<title>s142:e&#45;&gt;s2:w</title>
<path fill="none" stroke="black" d="M1186,-591C1220.94,-591 1265.3,-283.62 941,-556.5 869.38,-616.76 976.62,-703.74 905,-764 850.72,-809.68 316.89,-813.94 266.5,-764 251.51,-749.15 243.38,-678.47 256.79,-658.35"/>
<polygon fill="black" stroke="black" points="258.81,-661.22 265.5,-653 255.15,-655.26 258.81,-661.22"/>
</g>
</g>
</svg>
