<?xml version="1.0" encoding="UTF-8" standalone="no"?>
<!DOCTYPE svg PUBLIC "-//W3C//DTD SVG 1.1//EN"
 "http://www.w3.org/Graphics/SVG/1.1/DTD/svg11.dtd">
<!-- Generated by graphviz version 2.43.0 (0)
 -->
<!-- Title: _130 Pages: 1 -->
<svg width="1677pt" height="743pt"
 viewBox="0.00 0.00 1677.09 743.00" xmlns="http://www.w3.org/2000/svg" xmlns:xlink="http://www.w3.org/1999/xlink">
<g id="graph0" class="graph" transform="scale(1 1) rotate(0) translate(4 739)">
<title>_130</title>
<polygon fill="white" stroke="transparent" points="-4,4 -4,-739 1673.09,-739 1673.09,4 -4,4"/>
<g id="clust1" class="cluster">
<title>cluster130diagram</title>
<polygon fill="none" stroke="black" points="8,-8 8,-727 1661.09,-727 1661.09,-8 8,-8"/>
<text text-anchor="start" x="800.55" y="-708.3" font-family="Times,serif" font-weight="bold" font-size="14.00">Diagram</text>
</g>
<g id="clust2" class="cluster">
<title>cluster130subsystems</title>
<polygon fill="none" stroke="white" points="16,-16 16,-688 1653.09,-688 1653.09,-16 16,-16"/>
</g>
<!-- s2 -->
<g id="node1" class="node">
<title>s2</title>
<polygon fill="none" stroke="black" points="263.5,-642 263.5,-676 894.5,-676 894.5,-642 263.5,-642"/>
<text text-anchor="start" x="517.5" y="-662.8" font-family="Times,serif" font-weight="bold" font-size="14.00">MultibodyPlant</text>
<text text-anchor="start" x="535" y="-648.8" font-family="Times,serif" font-size="14.00">name=plant</text>
<polygon fill="none" stroke="black" points="263.5,-621 263.5,-642 530.5,-642 530.5,-621 263.5,-621"/>
<text text-anchor="start" x="338.5" y="-627.8" font-family="Times,serif" font-size="14.00">geometry_query</text>
<polygon fill="none" stroke="black" points="530.5,-621 530.5,-642 894.5,-642 894.5,-621 530.5,-621"/>
<text text-anchor="start" x="658" y="-627.8" font-family="Times,serif" font-size="14.00">geometry_pose</text>
<polygon fill="none" stroke="black" points="263.5,-600 263.5,-621 530.5,-621 530.5,-600 263.5,-600"/>
<text text-anchor="start" x="363.5" y="-606.8" font-family="Times,serif" font-size="14.00" fill="grey">actuation</text>
<polygon fill="none" stroke="black" points="530.5,-600 530.5,-621 894.5,-621 894.5,-600 530.5,-600"/>
<text text-anchor="start" x="600.5" y="-606.8" font-family="Times,serif" font-size="14.00">deformable_body_configuration</text>
<polygon fill="none" stroke="black" points="263.5,-579 263.5,-600 530.5,-600 530.5,-579 263.5,-579"/>
<text text-anchor="start" x="304" y="-585.8" font-family="Times,serif" font-size="14.00">applied_generalized_force</text>
<polygon fill="none" stroke="black" points="530.5,-579 530.5,-600 894.5,-600 894.5,-579 530.5,-579"/>
<text text-anchor="start" x="694" y="-585.8" font-family="Times,serif" font-size="14.00">state</text>
<polygon fill="none" stroke="black" points="263.5,-558 263.5,-579 530.5,-579 530.5,-558 263.5,-558"/>
<text text-anchor="start" x="321.5" y="-564.8" font-family="Times,serif" font-size="14.00">applied_spatial_force</text>
<polygon fill="none" stroke="black" points="530.5,-558 530.5,-579 894.5,-579 894.5,-558 530.5,-558"/>
<text text-anchor="start" x="671.5" y="-564.8" font-family="Times,serif" font-size="14.00">body_poses</text>
<polygon fill="none" stroke="black" points="263.5,-537 263.5,-558 530.5,-558 530.5,-537 263.5,-537"/>
<text text-anchor="start" x="286.5" y="-543.8" font-family="Times,serif" font-size="14.00" fill="grey">WorldModelInstance_actuation</text>
<polygon fill="none" stroke="black" points="530.5,-537 530.5,-558 894.5,-558 894.5,-537 530.5,-537"/>
<text text-anchor="start" x="630.5" y="-543.8" font-family="Times,serif" font-size="14.00">body_spatial_velocities</text>
<polygon fill="none" stroke="black" points="263.5,-516 263.5,-537 530.5,-537 530.5,-516 263.5,-516"/>
<text text-anchor="start" x="272" y="-522.8" font-family="Times,serif" font-size="14.00" fill="grey">WorldModelInstance_desired_state</text>
<polygon fill="none" stroke="black" points="530.5,-516 530.5,-537 894.5,-537 894.5,-516 530.5,-516"/>
<text text-anchor="start" x="617" y="-522.8" font-family="Times,serif" font-size="14.00">body_spatial_accelerations</text>
<polygon fill="none" stroke="black" points="263.5,-495 263.5,-516 530.5,-516 530.5,-495 263.5,-495"/>
<text text-anchor="start" x="281" y="-501.8" font-family="Times,serif" font-size="14.00" fill="grey">DefaultModelInstance_actuation</text>
<polygon fill="none" stroke="black" points="530.5,-495 530.5,-516 894.5,-516 894.5,-495 530.5,-495"/>
<text text-anchor="start" x="623.5" y="-501.8" font-family="Times,serif" font-size="14.00">generalized_acceleration</text>
<polygon fill="none" stroke="black" points="263.5,-474 263.5,-495 530.5,-495 530.5,-474 263.5,-474"/>
<text text-anchor="start" x="266.5" y="-480.8" font-family="Times,serif" font-size="14.00" fill="grey">DefaultModelInstance_desired_state</text>
<polygon fill="none" stroke="black" points="530.5,-474 530.5,-495 894.5,-495 894.5,-474 530.5,-474"/>
<text text-anchor="start" x="664" y="-480.8" font-family="Times,serif" font-size="14.00" fill="grey">net_actuation</text>
<polygon fill="none" stroke="black" points="263.5,-453 263.5,-474 530.5,-474 530.5,-453 263.5,-453"/>
<text text-anchor="start" x="327" y="-459.8" font-family="Times,serif" font-size="14.00" fill="grey">table_top_actuation</text>
<polygon fill="none" stroke="black" points="530.5,-453 530.5,-474 894.5,-474 894.5,-453 530.5,-453"/>
<text text-anchor="start" x="658" y="-459.8" font-family="Times,serif" font-size="14.00">reaction_forces</text>
<polygon fill="none" stroke="black" points="263.5,-432 263.5,-453 530.5,-453 530.5,-432 263.5,-432"/>
<text text-anchor="start" x="312.5" y="-438.8" font-family="Times,serif" font-size="14.00" fill="grey">table_top_desired_state</text>
<polygon fill="none" stroke="black" points="530.5,-432 530.5,-453 894.5,-453 894.5,-432 530.5,-432"/>
<text text-anchor="start" x="658" y="-438.8" font-family="Times,serif" font-size="14.00">contact_results</text>
<polygon fill="none" stroke="black" points="263.5,-411 263.5,-432 530.5,-432 530.5,-411 263.5,-411"/>
<text text-anchor="start" x="323.5" y="-417.8" font-family="Times,serif" font-size="14.00" fill="grey">sugar_box_actuation</text>
<polygon fill="none" stroke="black" points="530.5,-411 530.5,-432 894.5,-432 894.5,-411 530.5,-411"/>
<text text-anchor="start" x="617.5" y="-417.8" font-family="Times,serif" font-size="14.00" fill="grey">WorldModelInstance_state</text>
<polygon fill="none" stroke="black" points="263.5,-390 263.5,-411 530.5,-411 530.5,-390 263.5,-390"/>
<text text-anchor="start" x="309" y="-396.8" font-family="Times,serif" font-size="14.00" fill="grey">sugar_box_desired_state</text>
<polygon fill="none" stroke="black" points="530.5,-390 530.5,-411 894.5,-411 894.5,-390 530.5,-390"/>
<text text-anchor="start" x="547" y="-396.8" font-family="Times,serif" font-size="14.00" fill="grey">WorldModelInstance_generalized_acceleration</text>
<polyline fill="none" stroke="grey" points="263.5,-390 263.5,-96 530.5,-96 "/>
<polygon fill="none" stroke="black" points="530.5,-369 530.5,-390 894.5,-390 894.5,-369 530.5,-369"/>
<text text-anchor="start" x="539" y="-375.8" font-family="Times,serif" font-size="14.00" fill="grey">WorldModelInstance_generalized_contact_forces</text>
<polygon fill="none" stroke="black" points="530.5,-348 530.5,-369 894.5,-369 894.5,-348 530.5,-348"/>
<text text-anchor="start" x="587" y="-354.8" font-family="Times,serif" font-size="14.00" fill="grey">WorldModelInstance_net_actuation</text>
<polygon fill="none" stroke="black" points="530.5,-327 530.5,-348 894.5,-348 894.5,-327 530.5,-327"/>
<text text-anchor="start" x="612" y="-333.8" font-family="Times,serif" font-size="14.00" fill="grey">DefaultModelInstance_state</text>
<polygon fill="none" stroke="black" points="530.5,-306 530.5,-327 894.5,-327 894.5,-306 530.5,-306"/>
<text text-anchor="start" x="541.5" y="-312.8" font-family="Times,serif" font-size="14.00" fill="grey">DefaultModelInstance_generalized_acceleration</text>
<polygon fill="none" stroke="black" points="530.5,-285 530.5,-306 894.5,-306 894.5,-285 530.5,-285"/>
<text text-anchor="start" x="533.5" y="-291.8" font-family="Times,serif" font-size="14.00" fill="grey">DefaultModelInstance_generalized_contact_forces</text>
<polygon fill="none" stroke="black" points="530.5,-264 530.5,-285 894.5,-285 894.5,-264 530.5,-264"/>
<text text-anchor="start" x="581.5" y="-270.8" font-family="Times,serif" font-size="14.00" fill="grey">DefaultModelInstance_net_actuation</text>
<polygon fill="none" stroke="black" points="530.5,-243 530.5,-264 894.5,-264 894.5,-243 530.5,-243"/>
<text text-anchor="start" x="658" y="-249.8" font-family="Times,serif" font-size="14.00" fill="grey">table_top_state</text>
<polygon fill="none" stroke="black" points="530.5,-222 530.5,-243 894.5,-243 894.5,-222 530.5,-222"/>
<text text-anchor="start" x="587.5" y="-228.8" font-family="Times,serif" font-size="14.00" fill="grey">table_top_generalized_acceleration</text>
<polygon fill="none" stroke="black" points="530.5,-201 530.5,-222 894.5,-222 894.5,-201 530.5,-201"/>
<text text-anchor="start" x="579.5" y="-207.8" font-family="Times,serif" font-size="14.00" fill="grey">table_top_generalized_contact_forces</text>
<polygon fill="none" stroke="black" points="530.5,-180 530.5,-201 894.5,-201 894.5,-180 530.5,-180"/>
<text text-anchor="start" x="627.5" y="-186.8" font-family="Times,serif" font-size="14.00" fill="grey">table_top_net_actuation</text>
<polygon fill="none" stroke="black" points="530.5,-159 530.5,-180 894.5,-180 894.5,-159 530.5,-159"/>
<text text-anchor="start" x="654.5" y="-165.8" font-family="Times,serif" font-size="14.00">sugar_box_state</text>
<polygon fill="none" stroke="black" points="530.5,-138 530.5,-159 894.5,-159 894.5,-138 530.5,-138"/>
<text text-anchor="start" x="584" y="-144.8" font-family="Times,serif" font-size="14.00">sugar_box_generalized_acceleration</text>
<polygon fill="none" stroke="black" points="530.5,-117 530.5,-138 894.5,-138 894.5,-117 530.5,-117"/>
<text text-anchor="start" x="576" y="-123.8" font-family="Times,serif" font-size="14.00">sugar_box_generalized_contact_forces</text>
<polygon fill="none" stroke="black" points="530.5,-96 530.5,-117 894.5,-117 894.5,-96 530.5,-96"/>
<text text-anchor="start" x="624" y="-102.8" font-family="Times,serif" font-size="14.00" fill="grey">sugar_box_net_actuation</text>
</g>
<!-- s3 -->
<g id="node2" class="node">
<title>s3</title>
<polygon fill="none" stroke="black" points="946,-642 946,-676 1176,-676 1176,-642 946,-642"/>
<text text-anchor="start" x="1013" y="-662.8" font-family="Times,serif" font-weight="bold" font-size="14.00">SceneGraph</text>
<text text-anchor="start" x="990.5" y="-648.8" font-family="Times,serif" font-size="14.00">name=scene_graph</text>
<polygon fill="none" stroke="black" points="946,-621 946,-642 1128,-642 1128,-621 946,-621"/>
<text text-anchor="start" x="998.5" y="-627.8" font-family="Times,serif" font-size="14.00">plant_pose</text>
<polygon fill="none" stroke="black" points="1128,-558 1128,-642 1176,-642 1176,-558 1128,-558"/>
<text text-anchor="start" x="1131" y="-596.3" font-family="Times,serif" font-size="14.00">query</text>
<polygon fill="none" stroke="black" points="946,-600 946,-621 1128,-621 1128,-600 946,-600"/>
<text text-anchor="start" x="967.5" y="-606.8" font-family="Times,serif" font-size="14.00">plant_configuration</text>
<polygon fill="none" stroke="black" points="946,-579 946,-600 1128,-600 1128,-579 946,-579"/>
<text text-anchor="start" x="979.5" y="-585.8" font-family="Times,serif" font-size="14.00">Source_34_pose</text>
<polygon fill="none" stroke="black" points="946,-558 946,-579 1128,-579 1128,-558 946,-558"/>
<text text-anchor="start" x="949" y="-564.8" font-family="Times,serif" font-size="14.00">Source_34_configuration</text>
</g>
<!-- s2&#45;&gt;s3 -->
<g id="edge2" class="edge">
<title>s2:e&#45;&gt;s3:w</title>
<path fill="none" stroke="black" d="M895.5,-632C913.72,-632 920.62,-632 934.95,-632"/>
<polygon fill="black" stroke="black" points="935,-635.5 945,-632 935,-628.5 935,-635.5"/>
</g>
<!-- s2&#45;&gt;s3 -->
<g id="edge3" class="edge">
<title>s2:e&#45;&gt;s3:w</title>
<path fill="none" stroke="black" d="M895.5,-611C913.72,-611 920.62,-610.31 934.95,-610.08"/>
<polygon fill="black" stroke="black" points="935.03,-613.58 945,-610 934.97,-606.58 935.03,-613.58"/>
</g>
<!-- s3&#45;&gt;s2 -->
<g id="edge5" class="edge">
<title>s3:e&#45;&gt;s2:w</title>
<path fill="none" stroke="black" d="M1177,-600C1216.96,-600 1224.45,-337.93 938,-554 891.5,-589.07 948.5,-644.93 902,-680 845.36,-722.72 314.19,-729.64 263.5,-680 251.35,-668.1 244.38,-644.69 252.85,-635.66"/>
<polygon fill="black" stroke="black" points="254.39,-638.82 262.5,-632 251.91,-632.28 254.39,-638.82"/>
</g>
<!-- s30 -->
<g id="node3" class="node">
<title>s30</title>
<polygon fill="none" stroke="black" points="1228.5,-611 1228.5,-659 1501.5,-659 1501.5,-611 1228.5,-611"/>
<text text-anchor="start" x="1291.5" y="-645.8" font-family="Times,serif" font-weight="bold" font-size="14.00">MeshcatVisualizer</text>
<text text-anchor="start" x="1231.5" y="-631.8" font-family="Times,serif" font-size="14.00">name=meshcat_visualizer(visualizer)</text>
<text text-anchor="start" x="1283.5" y="-617.8" font-family="Times,serif" font-size="14.00">path=/drake/visualizer</text>
<polygon fill="none" stroke="black" points="1228.5,-590 1228.5,-611 1410.5,-611 1410.5,-590 1228.5,-590"/>
<text text-anchor="start" x="1273.5" y="-596.8" font-family="Times,serif" font-size="14.00">query_object</text>
<polyline fill="none" stroke="grey" points="1410.5,-590 1501.5,-590 1501.5,-611 "/>
</g>
<!-- s3&#45;&gt;s30 -->
<g id="edge7" class="edge">
<title>s3:e&#45;&gt;s30:w</title>
<path fill="none" stroke="black" d="M1177,-600C1195.59,-600 1202.63,-600 1217.25,-600"/>
<polygon fill="black" stroke="black" points="1217.5,-603.5 1227.5,-600 1217.5,-596.5 1217.5,-603.5"/>
</g>
<!-- meshcat_in -->
<g id="node4" class="node">
<title>meshcat_in</title>
<ellipse fill="none" stroke="magenta" cx="1595.05" cy="-625" rx="50.09" ry="18"/>
<text text-anchor="middle" x="1595.05" y="-621.3" font-family="Times,serif" font-size="14.00">Meshcat</text>
</g>
<!-- s30&#45;&gt;meshcat_in -->
<g id="edge1" class="edge">
<title>s30:e&#45;&gt;meshcat_in</title>
<path fill="none" stroke="magenta" stroke-dasharray="5,2" d="M1509,-625C1517.19,-625 1525.82,-625 1534.32,-625"/>
<polygon fill="magenta" stroke="magenta" points="1534.58,-628.5 1544.58,-625 1534.58,-621.5 1534.58,-628.5"/>
</g>
<!-- s31 -->
<g id="node5" class="node">
<title>s31</title>
<polygon fill="none" stroke="black" points="32.5,-49 32.5,-70 211.5,-70 211.5,-49 32.5,-49"/>
<text text-anchor="start" x="35.5" y="-56.8" font-family="Times,serif" font-weight="bold" font-size="14.00">utils.FlatnessInverter</text>
<polyline fill="none" stroke="grey" points="32.5,-49 32.5,-28 103.5,-28 "/>
<polygon fill="none" stroke="black" points="103.5,-28 103.5,-49 211.5,-49 211.5,-28 103.5,-28"/>
<text text-anchor="start" x="139" y="-34.8" font-family="Times,serif" font-size="14.00">state</text>
</g>
<!-- s32 -->
<g id="node6" class="node">
<title>s32</title>
<polygon fill="none" stroke="black" points="498.5,-49 498.5,-70 659.5,-70 659.5,-49 498.5,-49"/>
<text text-anchor="start" x="518" y="-56.8" font-family="Times,serif" font-weight="bold" font-size="14.00">utils.Quadrotor</text>
<polygon fill="none" stroke="black" points="498.5,-28 498.5,-49 541.5,-49 541.5,-28 498.5,-28"/>
<text text-anchor="start" x="501.5" y="-34.8" font-family="Times,serif" font-size="14.00">state</text>
<polygon fill="none" stroke="black" points="541.5,-28 541.5,-49 659.5,-49 659.5,-28 541.5,-28"/>
<text text-anchor="start" x="544.5" y="-34.8" font-family="Times,serif" font-size="14.00">quadrotor_pose</text>
</g>
<!-- s31&#45;&gt;s32 -->
<g id="edge6" class="edge">
<title>s31:e&#45;&gt;s32:w</title>
<path fill="none" stroke="black" d="M212.5,-38C335.7,-38 369.03,-38 487.32,-38"/>
<polygon fill="black" stroke="black" points="487.5,-41.5 497.5,-38 487.5,-34.5 487.5,-41.5"/>
</g>
<!-- s32&#45;&gt;s3 -->
<g id="edge4" class="edge">
<title>s32:e&#45;&gt;s3:w</title>
<path fill="none" stroke="black" d="M660.5,-38C769.68,-38 828.73,-2.06 902,-83 937.57,-122.3 894.46,-534.34 935.89,-584.09"/>
<polygon fill="black" stroke="black" points="934.54,-587.34 945,-589 937.86,-581.18 934.54,-587.34"/>
</g>
</g>
</svg>
